<svg width="922" height="272" viewBox="0 0 922 272" fill="none" xmlns="http://www.w3.org/2000/svg">
<mask id="mask0_165_1369" style="mask-type:alpha" maskUnits="userSpaceOnUse" x="0" y="0" width="922" height="272">
<rect width="922" height="272" rx="36" fill="#F5F5F5"/>
</mask>
<g mask="url(#mask0_165_1369)">
<path d="M857.607 136.864C858.183 139.207 858.116 141.662 857.413 143.971C856.71 146.279 855.396 148.354 853.611 149.978C851.244 152.073 848.179 153.284 846.006 155.589C844.661 157.121 843.736 158.976 843.321 160.973C842.907 162.969 843.016 165.039 843.639 166.98C844.299 168.908 845.342 170.681 846.707 172.194C848.071 173.706 849.728 174.926 851.578 175.78C854.096 176.957 856.857 177.521 859.636 177.427C862.414 177.332 865.13 176.582 867.563 175.237C873.562 171.846 877.054 165.04 877.938 158.204C878.823 151.367 877.434 144.445 875.61 137.795" fill="#263238"/>
<path d="M807.4 157.218C806.405 151.299 806.526 145.245 807.757 139.37C808.277 136.497 809.33 133.747 810.861 131.261C811.383 130.334 812.176 129.589 813.135 129.127C813.831 128.896 814.578 128.863 815.291 129.031C816.005 129.2 816.658 129.563 817.178 130.082C817.841 130.772 818.35 131.595 818.671 132.497C818.992 133.398 819.118 134.358 819.04 135.312C818.902 137.219 818.434 139.089 817.659 140.837C815.261 146.967 811.451 152.058 807.377 157.21" fill="#263238"/>
<path d="M927.68 179.653C929.085 180.654 960.272 247.832 960.272 247.832C957.764 246.761 954.986 246.49 952.318 247.056L950.626 247.506C947.599 248.32 944.727 249.631 942.129 251.386L933.228 257.408C932.876 257.205 932.578 256.922 932.358 256.58C932.137 256.238 932.002 255.849 931.964 255.445V255.189L907.783 213.688L927.68 179.653Z" fill="#FFDE40"/>
<path d="M810.574 72.7041L818.893 119.986C821.57 126.349 852.788 164.901 852.788 164.901L842.467 198.067L801.464 142.001C797.656 137.93 795.585 132.535 795.69 126.962L797.289 76.4444L810.574 72.7041Z" fill="#FFBE9D"/>
<path d="M854.845 157.49L876.255 159.112L894.925 162.007C894.925 162.007 927.68 170.612 927.68 174.198C927.68 175.393 918.741 203.864 913.712 220.92C912.48 225.063 911.474 229.27 910.701 233.523L927.68 271.112H847.108V236.65C847.108 236.65 841.676 191.386 842.63 185.201C843.585 179.016 854.845 157.49 854.845 157.49Z" fill="#FFDE40"/>
<path d="M800.416 53.5992C800.542 48.7833 801.035 43.9841 801.89 39.2432C802.007 38.5681 802.286 37.7533 802.961 37.6912C803.799 37.5826 804.226 38.6612 804.335 39.4993C805.079 45.2168 804.84 51.0195 803.629 56.6566" fill="#EB996E"/>
<path d="M809.961 153.719C819.149 145.509 819.459 131.285 818.675 119.963C818.522 119.136 818.647 118.282 819.032 117.534C819.909 116.285 822.043 116.758 822.912 118.015C823.781 119.272 823.688 120.925 823.642 122.446C824.115 121.158 826.133 121.166 827.079 122.159C828.026 123.152 828.189 124.65 828.298 126.039L828.6 129.826L855.442 155.434C855.442 155.434 856.179 153.106 858.15 154.448C860.121 155.791 861.394 158.623 861.394 158.623L842.483 199.899L807.385 157.219C808.059 155.927 808.928 154.747 809.961 153.719Z" fill="#FFDE40"/>
<path d="M846.386 182.283C843.586 185.855 841.494 189.93 840.225 194.288C838.96 198.674 839.098 203.347 840.621 207.651C841.798 210.628 843.728 213.25 846.221 215.26C848.714 217.27 851.685 218.6 854.845 219.12" fill="#FFDE40"/>
<path d="M819.312 150.685C819.424 150.308 819.569 149.942 819.746 149.591C820.057 148.908 820.476 147.899 820.949 146.642C821.422 145.385 821.927 143.864 822.4 142.156C822.892 140.293 823.283 138.405 823.572 136.499C823.84 134.593 824.003 132.673 824.061 130.749C824.061 128.972 824.061 127.374 823.952 126.031C823.843 124.689 823.743 123.61 823.642 122.865C823.575 122.478 823.539 122.086 823.533 121.693C823.659 122.066 823.748 122.451 823.797 122.842C823.998 123.889 824.146 124.946 824.239 126.008C824.391 127.586 824.456 129.172 824.433 130.757C824.374 134.644 823.811 138.507 822.757 142.25C822.324 143.775 821.806 145.275 821.205 146.743C820.693 148 820.235 148.993 819.878 149.66C819.715 150.016 819.526 150.358 819.312 150.685Z" fill="#263238"/>
<path d="M825.155 143.475C825.408 142.808 825.698 142.155 826.024 141.52C827.383 138.37 828.171 135.005 828.352 131.579C828.351 130.866 828.39 130.154 828.468 129.445C828.621 130.148 828.678 130.869 828.639 131.587C828.612 135.067 827.818 138.499 826.311 141.636C826.015 142.301 825.625 142.92 825.155 143.475Z" fill="#263238"/>
<path d="M856.676 164.94C856.614 164.901 856.94 164.396 857.126 163.481C857.344 162.284 857.275 161.053 856.924 159.888C856.556 158.715 856.107 157.569 855.582 156.458C855.337 155.998 855.154 155.507 855.039 154.999C855.346 155.414 855.606 155.862 855.815 156.334C856.429 157.427 856.926 158.582 857.297 159.779C857.668 161.005 857.697 162.309 857.382 163.551C857.285 164.072 857.039 164.554 856.676 164.94Z" fill="#263238"/>
<path d="M852.012 219.601C851.891 219.551 851.776 219.485 851.671 219.407L850.755 218.802C849.979 218.266 848.823 217.483 847.473 216.419C845.877 215.19 844.417 213.793 843.119 212.252C841.522 210.345 840.372 208.104 839.751 205.695C839.159 203.285 839.006 200.788 839.301 198.323C839.539 196.324 839.984 194.356 840.628 192.449C841.055 191.164 841.55 189.902 842.111 188.67C842.312 188.235 842.467 187.894 842.584 187.676C842.635 187.556 842.7 187.441 842.778 187.335C842.631 187.81 842.457 188.276 842.258 188.732C841.909 189.616 841.404 190.905 840.9 192.534C840.304 194.433 839.893 196.384 839.674 198.362C839.404 200.781 839.561 203.229 840.139 205.594C840.743 207.95 841.859 210.144 843.406 212.02C844.677 213.551 846.099 214.95 847.651 216.194C848.97 217.281 850.08 218.096 850.848 218.678L851.717 219.345C851.919 219.5 852.02 219.586 852.012 219.601Z" fill="#263238"/>
<path d="M895.973 227.276C895.865 227.333 895.75 227.374 895.631 227.4C895.398 227.462 895.065 227.578 894.622 227.664C893.372 227.935 892.099 228.088 890.82 228.122C886.556 228.253 882.35 227.104 878.744 224.823C875.139 222.542 872.299 219.235 870.59 215.325C870.069 214.156 869.661 212.94 869.371 211.694C869.263 211.251 869.224 210.918 869.177 210.669C869.151 210.55 869.138 210.427 869.139 210.305C869.297 210.743 869.427 211.192 869.527 211.647C870.762 216.332 873.527 220.47 877.384 223.403C881.241 226.336 885.967 227.896 890.812 227.835C892.079 227.828 893.343 227.719 894.591 227.509C895.047 227.407 895.508 227.329 895.973 227.276Z" fill="#263238"/>
<path d="M908.319 242.4C908.21 242.4 909.234 238.078 910.647 232.816C912.059 227.555 913.223 223.31 913.324 223.341C913.425 223.373 912.408 227.656 911.035 232.917C909.661 238.179 908.427 242.4 908.319 242.4Z" fill="#263238"/>
<path d="M919.144 233.251C919.051 233.305 915.931 228.207 912.16 221.859C908.389 215.512 905.44 210.32 905.541 210.266C905.642 210.212 908.753 215.302 912.525 221.65C916.296 227.998 919.276 233.189 919.144 233.251Z" fill="#263238"/>
<g opacity="0.3">
<path d="M869.969 211.958C868.145 215.418 869.666 219.64 871.335 223.186C872.631 225.933 874.074 228.719 876.433 230.636C877.592 231.583 878.935 232.281 880.376 232.685C881.818 233.089 883.328 233.191 884.81 232.984C886.293 232.777 887.717 232.266 888.993 231.483C890.269 230.699 891.369 229.661 892.225 228.432C887.278 228.359 882.469 226.79 878.431 223.933C874.392 221.076 871.312 217.063 869.596 212.423" fill="black"/>
</g>
<g opacity="0.3">
<path d="M905.595 210.266C904.198 213.595 905.254 218.15 906.713 221.448C908.171 224.746 909.723 228.432 908.552 231.854C908.25 232.461 908.093 233.131 908.094 233.809C908.171 234.477 908.87 235.121 909.498 234.811C909.823 234.582 910.048 234.238 910.127 233.848C911.229 230.527 912.333 227.208 913.44 223.892" fill="black"/>
</g>
<path d="M832.185 166.43C832.311 164.346 832.57 162.272 832.961 160.222C833.225 158.16 833.622 156.118 834.149 154.107C834.032 156.192 833.772 158.266 833.373 160.315C833.112 162.377 832.715 164.42 832.185 166.43Z" fill="#FAFAFA"/>
<path d="M824.014 164.714C823.913 164.777 822.579 162.914 820.732 160.772C818.885 158.631 817.255 157.024 817.333 156.939C818.724 157.956 819.972 159.157 821.042 160.509C822.211 161.776 823.21 163.19 824.014 164.714Z" fill="#FAFAFA"/>
<path d="M831.029 144.725C830.796 145.225 830.501 145.694 830.152 146.122C829.563 146.952 828.701 148.062 827.7 149.226C826.699 150.39 825.737 151.437 825.015 152.151C824.653 152.566 824.239 152.931 823.781 153.238C823.696 153.16 825.396 151.321 827.39 148.962C829.384 146.603 830.936 144.624 831.029 144.725Z" fill="#FAFAFA"/>
<path d="M828.29 134.955C828.174 135.002 827.731 134.016 826.878 133.031C826.024 132.045 825.108 131.479 825.17 131.362C825.978 131.595 826.685 132.089 827.18 132.767C827.777 133.357 828.166 134.125 828.29 134.955Z" fill="#FAFAFA"/>
<path d="M821.213 140.977C820.579 141.275 819.894 141.452 819.195 141.497C818.517 141.674 817.81 141.716 817.116 141.621C818.427 141.145 819.818 140.926 821.213 140.977Z" fill="#FAFAFA"/>
<path d="M839.069 149.598C839.086 148.39 839.001 147.183 838.812 145.99C838.491 144.824 838.068 143.69 837.548 142.599C838.428 143.503 839.005 144.658 839.2 145.904C839.533 147.12 839.487 148.409 839.069 149.598Z" fill="#FAFAFA"/>
<path d="M848.606 159.857C847.174 157.572 845.252 155.634 842.98 154.184C844.263 154.682 845.427 155.444 846.396 156.422C847.366 157.399 848.118 158.569 848.606 159.857Z" fill="#FAFAFA"/>
<path d="M833.295 177.658C830.985 178.524 828.426 178.437 826.179 177.418C826.218 177.301 827.731 177.79 829.726 177.845C831.72 177.899 833.264 177.542 833.295 177.658Z" fill="#FAFAFA"/>
<path d="M840.481 181.344C840.372 181.298 840.978 179.513 841.482 177.247C841.986 174.981 842.211 173.103 842.328 173.119C842.408 174.538 842.256 175.962 841.878 177.332C841.631 178.736 841.159 180.091 840.481 181.344Z" fill="#FAFAFA"/>
<path d="M856.179 181.942C854.952 180.904 853.817 179.762 852.788 178.527C851.653 177.384 850.615 176.149 849.684 174.833C850.907 175.876 852.039 177.021 853.068 178.256C854.202 179.399 855.243 180.631 856.179 181.942Z" fill="#FAFAFA"/>
<path d="M863.489 200.077C862.559 199.402 861.71 198.62 860.96 197.749C860.118 196.967 859.368 196.093 858.725 195.142C859.655 195.817 860.504 196.598 861.254 197.47C862.103 198.244 862.854 199.12 863.489 200.077Z" fill="#FAFAFA"/>
<path d="M849.902 201.807C849.009 202.757 847.959 203.545 846.798 204.135C845.705 204.863 844.491 205.388 843.212 205.687C843.212 205.579 844.764 204.911 846.596 203.817C848.427 202.723 849.824 201.714 849.902 201.807Z" fill="#FAFAFA"/>
<path d="M856.156 219.058C856.04 219.058 856.505 216.994 856.738 214.441C856.971 211.888 856.901 209.785 857.017 209.785C857.303 211.321 857.344 212.892 857.142 214.441C857.064 216.023 856.731 217.582 856.156 219.058Z" fill="#FAFAFA"/>
<path d="M879.677 205.036C878.395 204.251 877.258 203.251 876.317 202.079C875.279 200.996 874.441 199.737 873.841 198.362C873.942 198.292 875.005 199.976 876.619 201.815C878.233 203.654 879.754 204.935 879.677 205.036Z" fill="#FAFAFA"/>
<path d="M888.267 212.353C888.174 212.283 889.353 210.669 890.673 208.597C891.992 206.525 892.962 204.787 893.063 204.842C892.559 206.252 891.867 207.589 891.006 208.815C890.261 210.115 889.34 211.306 888.267 212.353Z" fill="#FAFAFA"/>
<path d="M887.01 194.443C884.36 194.003 881.761 193.301 879.25 192.348C880.588 192.508 881.908 192.793 883.192 193.202C884.503 193.486 885.782 193.902 887.01 194.443Z" fill="#FAFAFA"/>
<path d="M880.748 225.964C880.61 224.742 880.61 223.508 880.748 222.286C880.758 221.056 880.898 219.831 881.167 218.631C881.306 219.853 881.306 221.087 881.167 222.309C881.159 223.539 881.018 224.764 880.748 225.964Z" fill="#FAFAFA"/>
<path d="M886.164 236.758C886.57 235.505 886.897 234.227 887.142 232.933C887.249 231.619 887.27 230.299 887.204 228.983C887.604 230.274 887.719 231.637 887.539 232.978C887.36 234.318 886.89 235.602 886.164 236.743V236.758Z" fill="#FAFAFA"/>
<path d="M872.126 234.376C871.73 231.695 872.256 228.96 873.616 226.616C873.725 226.663 873.011 228.3 872.607 230.45C872.204 232.599 872.243 234.368 872.126 234.376Z" fill="#FAFAFA"/>
<path d="M859.322 239.847C858.057 238.968 856.84 238.023 855.675 237.015C854.429 236.112 853.23 235.146 852.082 234.12C853.477 234.815 854.78 235.681 855.962 236.696C857.201 237.612 858.329 238.669 859.322 239.847Z" fill="#FAFAFA"/>
<path d="M867.99 224.622C865.02 226.506 861.907 228.154 858.678 229.55C860.139 228.544 861.675 227.652 863.272 226.88C864.784 226.007 866.362 225.252 867.99 224.622Z" fill="#FAFAFA"/>
<path d="M894.925 258.789C894.76 258.843 894.592 258.885 894.421 258.914C894.087 258.976 893.598 259.1 892.962 259.185C891.165 259.46 889.347 259.577 887.53 259.534C882.835 259.466 878.208 258.403 873.955 256.415C869.701 254.428 865.917 251.56 862.853 248.003C861.073 245.955 859.549 243.698 858.313 241.283C857.471 239.664 856.775 237.973 856.234 236.231C856.024 235.618 855.923 235.129 855.83 234.803C855.778 234.637 855.745 234.465 855.729 234.291C855.804 234.448 855.863 234.612 855.908 234.78C856.024 235.098 856.148 235.556 856.381 236.184C857.869 240.438 860.161 244.366 863.132 247.755C866.204 251.23 869.953 254.042 874.15 256.018C878.346 257.994 882.902 259.093 887.538 259.247C889.351 259.314 891.167 259.242 892.97 259.03C893.614 258.968 894.103 258.867 894.436 258.836C894.597 258.802 894.761 258.786 894.925 258.789Z" fill="#263238"/>
<path d="M871.738 254.769C871.473 253.538 871.601 252.254 872.103 251.099C872.482 249.897 873.232 248.845 874.245 248.096C873.559 249.088 872.97 250.143 872.483 251.246C872.128 252.395 871.878 253.575 871.738 254.769Z" fill="#FAFAFA"/>
<path d="M865.352 252.1C864.615 252.67 863.939 253.315 863.334 254.025C862.83 254.806 862.403 255.635 862.061 256.5C862.087 255.516 862.418 254.565 863.007 253.777C863.596 252.989 864.416 252.403 865.352 252.1Z" fill="#FAFAFA"/>
<path d="M889.912 266.72C888.642 266.618 887.415 266.213 886.335 265.537C885.254 264.862 884.352 263.937 883.704 262.84C885.392 264.662 887.535 266.001 889.912 266.72Z" fill="#FAFAFA"/>
<path d="M893.73 245.225C893.567 246.365 893.085 247.437 892.339 248.315C891.594 249.194 890.615 249.844 889.516 250.191C890.423 249.565 891.266 248.85 892.031 248.057C892.693 247.174 893.263 246.225 893.73 245.225Z" fill="#FAFAFA"/>
<path d="M904.586 261.249C904.493 261.171 905.517 259.875 906.464 258.091C907.411 256.306 907.915 254.73 908.016 254.769C907.577 257.237 906.371 259.504 904.571 261.249H904.586Z" fill="#FAFAFA"/>
<path d="M918.935 263.352C918.981 263.468 917.569 264.027 916.149 265.199C914.729 266.371 913.875 267.628 913.774 267.527C914.22 266.456 914.953 265.53 915.893 264.85C916.748 264.078 917.801 263.559 918.935 263.352Z" fill="#FAFAFA"/>
<path d="M907.993 244.984C907.869 245.023 907.217 242.757 905.766 240.242C904.315 237.728 902.763 235.959 902.864 235.881C903.289 236.181 903.664 236.548 903.973 236.968C905.606 238.876 906.851 241.085 907.636 243.471C907.831 243.954 907.951 244.464 907.993 244.984Z" fill="#FAFAFA"/>
<path d="M910.135 221.882C907.719 222.716 905.222 223.291 902.685 223.597C905.101 222.765 907.598 222.191 910.135 221.882Z" fill="#FAFAFA"/>
<path d="M903.531 214.976C902.645 214.152 901.849 213.237 901.156 212.245C900.366 211.33 899.677 210.334 899.1 209.272C899.994 210.085 900.791 210.999 901.475 211.996C902.272 212.907 902.962 213.907 903.531 214.976Z" fill="#FAFAFA"/>
<path d="M919.92 210.832C917.405 210.77 914.932 210.183 912.657 209.109C913.885 209.319 915.101 209.602 916.296 209.955C917.521 210.174 918.731 210.467 919.92 210.832Z" fill="#FAFAFA"/>
<path d="M860.044 265.835C858.595 265.277 857.278 264.423 856.177 263.327C855.076 262.232 854.215 260.919 853.65 259.472C855.232 262.09 857.427 264.284 860.044 265.866V265.835Z" fill="#FAFAFA"/>
<path d="M810.651 73.232C809.402 61.429 807.144 50.3245 806.531 38.7543C806.555 38.4642 806.519 38.1722 806.424 37.897C806.329 37.6217 806.178 37.3693 805.98 37.1557C805.811 37.057 805.624 36.9936 805.429 36.9695C805.235 36.9454 805.038 36.961 804.85 37.0155C804.662 37.0699 804.487 37.162 804.336 37.2862C804.185 37.4103 804.06 37.564 803.97 37.7377C803.632 38.464 803.497 39.2689 803.582 40.0657C803.595 46.2188 802.545 52.3278 800.478 58.1233C799.151 61.8869 797.374 65.4953 796.381 69.352C795.388 73.2087 797.258 74.5201 798.996 78.113" fill="#FFBE9D"/>
<path d="M799.019 78.0977C797.482 76.9185 796.29 75.3477 795.568 73.5497C794.845 71.7518 794.62 69.7928 794.914 67.8778C795.31 65.5498 796.466 63.4391 797.382 61.2663C798.298 59.0935 799.004 56.6801 798.445 54.3909C798.136 53.5413 797.928 52.6584 797.824 51.7603C797.824 50.8601 798.406 49.8513 799.306 49.8125C799.647 49.84 799.976 49.9461 800.268 50.1225C800.56 50.2989 800.808 50.5408 800.99 50.8291C802.503 52.6992 803.714 58.1623 802.954 62.244" fill="#FFBE9D"/>
<path d="M802.954 62.2437C802.954 62.2437 803.031 61.6151 803.078 60.4822C803.126 58.8841 802.994 57.2857 802.682 55.7175C802.473 54.6375 802.161 53.5799 801.751 52.5592C801.535 52.0039 801.242 51.4815 800.882 51.0072C800.72 50.7526 800.508 50.5339 800.258 50.3644C800.008 50.1949 799.727 50.0783 799.431 50.0217C799.125 50.0362 798.834 50.1503 798.599 50.3465C798.365 50.5427 798.202 50.8102 798.135 51.1081C797.968 51.7697 798.012 52.4666 798.259 53.1024C798.52 53.8123 798.702 54.5488 798.802 55.2985C798.877 56.0748 798.848 56.8577 798.717 57.6265C798.173 60.777 796.497 63.3223 795.613 65.8443C795.177 67.0227 794.943 68.2663 794.922 69.5226C794.917 70.6168 795.08 71.7054 795.403 72.7507C795.873 74.276 796.667 75.6816 797.731 76.8713C798.507 77.7016 799.011 78.0663 798.988 78.1051C798.85 78.0348 798.719 77.9488 798.6 77.849C798.25 77.5823 797.92 77.2892 797.615 76.9722C796.48 75.8023 795.631 74.3871 795.131 72.8361C794.778 71.7669 794.594 70.6487 794.588 69.5226C794.595 68.2259 794.823 66.9399 795.263 65.7202C796.117 63.1438 797.77 60.5986 798.282 57.5644C798.414 56.8271 798.443 56.0748 798.367 55.3295C798.274 54.601 798.1 53.8852 797.847 53.1955C797.579 52.4828 797.541 51.7039 797.739 50.9684C797.854 50.6012 798.066 50.2717 798.352 50.0139C798.495 49.8806 798.664 49.7781 798.848 49.7127C799.032 49.6473 799.228 49.6204 799.423 49.6337C799.778 49.6807 800.12 49.8025 800.425 49.9911C800.73 50.1797 800.991 50.4308 801.192 50.7278C801.569 51.2415 801.872 51.8058 802.092 52.404C802.502 53.4463 802.804 54.528 802.992 55.6322C803.286 57.2232 803.377 58.845 803.264 60.4589C803.237 60.8968 803.18 61.3324 803.093 61.7626C803.07 61.9288 803.023 62.0908 802.954 62.2437Z" fill="#EB996E"/>
<path d="M904.4 125.263C904.654 126.373 905.255 127.373 906.116 128.118C906.977 128.863 908.053 129.315 909.188 129.406C910.325 129.462 911.458 129.228 912.481 128.726C913.503 128.223 914.38 127.47 915.031 126.535C916.32 124.635 916.839 122.316 916.482 120.048C916.04 116.781 913.867 113.638 910.717 112.668C907.566 111.698 903.647 113.444 902.778 116.61L899.147 121.677L904.4 125.263Z" fill="#263238"/>
<path d="M900.109 115.307C900.461 112.498 900.246 109.648 899.475 106.925C898.705 104.201 897.395 101.661 895.624 99.4532C893.853 97.2456 891.657 95.4164 889.165 94.074C886.674 92.7316 883.938 91.9034 881.12 91.6386C869.86 90.5677 859.842 98.9562 858.158 110.146C856.676 119.955 855.403 129.857 855.45 133.426C855.59 144.29 861.93 148.496 864.506 149.722C865.431 150.056 866.388 150.292 867.362 150.428C867.371 150.43 867.38 150.434 867.387 150.439C867.395 150.445 867.402 150.451 867.407 150.459C867.412 150.467 867.416 150.476 867.417 150.486C867.419 150.495 867.418 150.504 867.416 150.514L865.01 162.93C863.916 171.085 868.471 178.364 876.611 179.552C884.752 180.739 891.169 174.477 892.419 166.313L900.109 115.307Z" fill="#FFBE9D"/>
<path d="M860.028 116.486C860.207 116.742 861.635 115.974 863.474 116.246C865.313 116.517 866.516 117.635 866.749 117.433C866.865 117.348 866.702 116.921 866.182 116.409C865.468 115.741 864.566 115.31 863.598 115.175C862.643 115.036 861.668 115.202 860.812 115.648C860.168 115.997 859.935 116.37 860.028 116.486Z" fill="#263238"/>
<path d="M876.355 120.025C876.534 120.281 877.969 119.513 879.801 119.784C881.632 120.056 882.851 121.173 883.083 120.972C883.192 120.886 883.037 120.46 882.509 119.94C881.797 119.276 880.897 118.848 879.933 118.714C878.977 118.574 878.003 118.74 877.147 119.187C876.518 119.536 876.27 119.909 876.355 120.025Z" fill="#263238"/>
<path d="M870.008 128.7C869.084 128.258 868.109 127.932 867.105 127.73C866.64 127.614 866.213 127.451 866.182 127.125C866.212 126.636 866.391 126.168 866.694 125.783L868.603 122.415C871.265 117.611 873.259 113.638 873.073 113.53C872.887 113.421 870.559 117.231 867.897 122.066L866.042 125.457C865.671 125.984 865.49 126.621 865.53 127.265C865.579 127.436 865.665 127.594 865.782 127.728C865.898 127.862 866.043 127.969 866.205 128.041C866.454 128.147 866.715 128.222 866.981 128.266C867.968 128.538 868.985 128.684 870.008 128.7Z" fill="#263238"/>
<path d="M867.431 150.506C867.431 150.506 874.415 152.12 884.077 148.085C884.077 148.085 879.917 157.048 866.787 153.858L867.431 150.506Z" fill="#EB996E"/>
<path d="M870.14 133.24C870.551 132.862 871.051 132.592 871.593 132.457C872.135 132.321 872.703 132.324 873.244 132.464C873.643 132.563 874.019 132.74 874.349 132.985C874.68 133.23 874.958 133.538 875.168 133.892C875.37 134.233 875.461 134.628 875.429 135.022C875.397 135.417 875.243 135.792 874.99 136.096C874.648 136.384 874.228 136.563 873.784 136.609C873.339 136.654 872.891 136.565 872.499 136.352C871.675 135.923 870.946 135.331 870.357 134.614C870.168 134.438 870.015 134.227 869.907 133.993C869.853 133.881 869.835 133.756 869.854 133.634C869.873 133.512 869.93 133.399 870.016 133.31" fill="#EB996E"/>
<path d="M875.222 130.757C874.928 130.695 874.633 132.689 872.724 133.861C870.815 135.033 868.72 134.497 868.665 134.776C868.619 134.901 869.084 135.234 869.977 135.39C871.141 135.574 872.333 135.343 873.345 134.738C874.315 134.154 875.022 133.216 875.316 132.123C875.51 131.292 875.362 130.765 875.222 130.757Z" fill="#263238"/>
<path d="M877.62 114.05C877.729 114.577 879.599 114.609 881.71 115.183C883.821 115.757 885.489 116.595 885.838 116.192C885.993 115.998 885.761 115.485 885.132 114.896C884.28 114.167 883.274 113.641 882.189 113.359C881.104 113.076 879.969 113.045 878.87 113.266C878.016 113.468 877.581 113.801 877.62 114.05Z" fill="#263238"/>
<path d="M861.883 110.829C862.139 111.295 863.474 111.046 864.987 111.248C866.5 111.45 867.757 111.931 868.091 111.543C868.254 111.349 868.091 110.899 867.602 110.426C866.916 109.841 866.071 109.473 865.176 109.371C864.28 109.269 863.374 109.436 862.574 109.851C862.007 110.201 861.767 110.604 861.883 110.829Z" fill="#263238"/>
<path d="M856.032 107.717C858.275 111.14 865.398 109.021 869.697 106.67C871.943 108.102 874.659 108.602 877.267 108.063C879.876 107.524 882.171 105.988 883.665 103.783C886.125 106.887 891.13 105.878 892.977 102.347C894.824 98.8166 893.753 93.9511 891.27 90.8626C888.787 87.7741 885.109 86.2066 881.492 85.547C872.918 83.995 863.582 87.2853 858.453 95.0375C856.086 98.6149 854.666 103.434 856.071 107.717" fill="#263238"/>
<path d="M879.731 86.7655C879.731 86.9207 877.706 86.5327 874.524 87.0604C870.391 87.7478 866.603 89.7865 863.753 92.8571C861.07 96.0721 859.297 99.9464 858.616 104.078C858.38 105.8 858.289 107.54 858.344 109.277C858.179 108.829 858.082 108.358 858.057 107.88C857.922 106.589 857.942 105.287 858.119 104C858.682 99.7087 860.465 95.6686 863.256 92.3605C866.207 89.1656 870.182 87.1039 874.493 86.5327C875.779 86.3597 877.082 86.3388 878.373 86.4706C878.838 86.4989 879.296 86.5984 879.731 86.7655Z" fill="#455A64"/>
<path d="M868.138 102.72C868.01 102.327 867.952 101.915 867.967 101.502C867.926 100.376 868.044 99.25 868.316 98.157C868.731 96.3239 869.517 94.5951 870.625 93.0771C871.734 91.5591 873.141 90.284 874.761 89.3303C876.38 88.3766 878.178 87.7644 880.043 87.5315C881.908 87.2985 883.801 87.4498 885.605 87.9759C886.694 88.2745 887.738 88.7182 888.709 89.2951C889.084 89.4898 889.418 89.753 889.695 90.0711C888.341 89.4306 886.934 88.9112 885.489 88.5191C881.974 87.6238 878.248 88.1541 875.123 89.9943C871.998 91.8346 869.727 94.8356 868.805 98.3432C868.044 100.935 868.285 102.72 868.138 102.72Z" fill="#455A64"/>
<path d="M888.709 98.9951C887.868 102.032 887.384 105.158 887.266 108.307C887.15 111.474 888.134 114.584 890.052 117.107C893.047 120.715 898.045 121.817 902.654 122.694C905.12 116.543 905.863 109.836 904.804 103.294C904.276 100.12 903.252 96.8844 901.017 94.5719C899.355 92.9328 897.197 91.8912 894.88 91.6103C892.563 91.3295 890.218 91.8252 888.213 93.0199" fill="#263238"/>
<path d="M891.27 114.019C890.06 116.641 890.145 119.676 890.564 122.555C890.983 125.434 891.712 128.25 891.681 131.137C891.65 134.024 890.735 137.089 888.469 138.897C887.782 139.355 887.137 139.875 886.544 140.449C886.251 140.741 886.056 141.115 885.983 141.522C885.911 141.929 885.966 142.348 886.141 142.723C886.575 143.421 887.887 143.406 888.073 142.606L887.957 142.808C887.842 143.001 887.781 143.221 887.778 143.446C887.776 143.671 887.832 143.892 887.942 144.088C888.053 144.283 888.212 144.447 888.405 144.561C888.599 144.676 888.818 144.738 889.043 144.74C889.836 144.702 890.613 144.502 891.325 144.153C892.038 143.803 892.672 143.311 893.187 142.707C894.669 140.992 895.259 138.688 895.647 136.499C896.842 129.647 896.609 122.531 898.502 115.85" fill="#263238"/>
<path d="M864.956 159.019C865.49 161.353 866.521 163.545 867.977 165.446C869.434 167.346 871.282 168.912 873.397 170.035C875.512 171.158 877.843 171.813 880.234 171.956C882.624 172.098 885.017 171.725 887.25 170.861C891.27 169.309 894.514 166.282 897.641 163.326C898.201 166.691 898.047 170.137 897.189 173.439C896.331 176.742 894.789 179.827 892.661 182.495C890.534 185.163 887.87 187.353 884.842 188.925C881.814 190.497 878.489 191.415 875.083 191.619C869.938 191.929 864.413 190.361 861.177 186.349C858.919 183.556 858.011 179.854 858.073 176.261C858.23 172.663 858.915 169.107 860.106 165.708C861.022 162.775 862.473 159.5 865.437 158.685" fill="#FFDE40"/>
<path d="M901.769 122.896C904.873 124.565 906.534 128.057 907.132 131.502C907.729 134.947 907.426 138.486 907.574 141.97C907.721 145.455 908.389 149.117 910.6 151.825C912.928 154.712 916.614 156.078 919.912 157.839C927.145 161.719 933.104 168.339 935.277 176.269C937.45 184.2 935.479 193.341 929.542 199.045C924.11 204.213 916.273 206.029 908.792 206.029C903.461 206.029 897.602 204.881 894.273 200.713C890.944 196.546 891.169 190.703 892.333 185.566C893.497 180.429 895.631 175.439 895.717 170.17C894.92 173.432 893.531 176.52 891.619 179.28C891.068 180.056 890.129 180.91 889.291 180.46C888.453 180.01 888.709 178.559 889.144 177.589C895.569 163.287 893.334 134.459 897.144 118.667" fill="#263238"/>
<path d="M896.477 121.274C896.671 121.212 904.175 119.792 903.205 127.21C902.235 134.629 894.995 132.13 895.01 131.921C895.026 131.711 896.477 121.274 896.477 121.274Z" fill="#FFBE9D"/>
<path d="M897.641 129.407C897.641 129.407 897.757 129.507 897.967 129.639C898.257 129.81 898.601 129.863 898.929 129.787C899.752 129.601 900.574 128.437 900.784 127.11C900.882 126.474 900.839 125.825 900.66 125.208C900.621 124.967 900.523 124.739 900.376 124.545C900.228 124.35 900.035 124.194 899.814 124.091C899.674 124.042 899.523 124.04 899.382 124.086C899.242 124.133 899.121 124.224 899.038 124.347C898.914 124.541 898.937 124.696 898.898 124.704C898.859 124.712 898.758 124.557 898.852 124.262C898.918 124.083 899.044 123.932 899.209 123.835C899.324 123.766 899.453 123.721 899.586 123.703C899.72 123.686 899.855 123.697 899.985 123.734C900.282 123.834 900.548 124.009 900.758 124.241C900.969 124.473 901.117 124.756 901.187 125.061C901.417 125.745 901.478 126.474 901.366 127.187C901.125 128.677 900.179 129.973 899.038 130.144C898.831 130.177 898.62 130.163 898.42 130.102C898.219 130.042 898.035 129.937 897.882 129.795C897.633 129.585 897.618 129.414 897.641 129.407Z" fill="#EB996E"/>
<path d="M857.289 175.004C857.653 174.212 858.073 173.447 858.546 172.715C859.628 170.925 860.525 169.03 861.223 167.058C861.902 165.085 862.13 162.985 861.891 160.912C861.74 160.061 861.543 159.22 861.301 158.39C861.447 158.579 861.56 158.792 861.635 159.019C861.888 159.613 862.07 160.236 862.178 160.873C862.504 162.991 862.31 165.156 861.611 167.182C860.907 169.183 859.961 171.091 858.795 172.863C858.36 173.545 858.018 174.089 857.731 174.453C857.444 174.818 857.312 175.02 857.289 175.004Z" fill="#263238"/>
<path d="M861.068 166.445C860.96 166.445 860.75 165.809 860.083 165.366C859.415 164.924 858.748 164.924 858.732 164.808C858.717 164.691 858.895 164.676 859.198 164.668C859.599 164.672 859.989 164.799 860.315 165.033C860.644 165.262 860.898 165.583 861.045 165.956C861.146 166.243 861.122 166.429 861.068 166.445Z" fill="#FAFAFA"/>
<path d="M865.864 166.43C865.282 165.776 864.644 165.176 863.955 164.637C863.191 164.209 862.385 163.861 861.549 163.597C862.012 163.533 862.482 163.563 862.932 163.684C863.383 163.806 863.805 164.016 864.172 164.303C864.992 164.764 865.599 165.527 865.864 166.43Z" fill="#FAFAFA"/>
<path d="M868.875 182.174C868.893 181.104 869.044 180.041 869.325 179.008C869.475 177.942 869.759 176.899 870.171 175.904C870.153 176.977 870.002 178.043 869.721 179.078C869.57 180.142 869.286 181.182 868.875 182.174Z" fill="#FAFAFA"/>
<path d="M880.98 184.549C880.786 182.321 880.857 180.079 881.19 177.868C881.394 180.095 881.324 182.339 880.98 184.549Z" fill="#FAFAFA"/>
<path d="M633.817 219.035L621.851 271.143L647.156 271.221L658.843 225.398L633.817 219.035Z" fill="#FFBE9D"/>
<path d="M758.085 155.015C755.68 151.795 752.917 148.698 751.652 144.88C751.039 143.034 750.799 141.078 750.147 139.247C749.495 137.415 748.308 135.631 746.492 134.94C744.676 134.249 743.295 134.94 742.115 136.244L733.432 161.642L738.437 181.151C743.434 180.026 749.689 178.691 754.36 176.588C759.032 174.485 762.12 171.117 762.446 166.003C762.671 161.991 760.491 158.243 758.085 155.015Z" fill="#263238"/>
<path d="M679.065 150.53C679.065 150.53 648.879 163.667 645.107 169.596C641.336 175.525 628.92 217.794 628.92 217.794L660.736 227.106L660.193 271.112H738.181L737.537 193.512L727.759 150.631C727.759 150.631 710.54 149.521 708.941 148.737C707.343 147.953 679.065 150.53 679.065 150.53Z" fill="#FFDE40"/>
<path d="M786.339 42.968C786.588 41.191 785.338 39.2355 786.238 37.6757C786.834 36.8719 787.685 36.2945 788.652 36.0383C789.12 35.8242 789.627 35.7055 790.142 35.6891C790.399 35.685 790.651 35.7563 790.867 35.8943C791.084 36.0322 791.255 36.2307 791.36 36.4651C791.416 36.7619 791.39 37.0683 791.285 37.3513C791.179 37.6344 790.999 37.8833 790.763 38.0715C790.29 38.443 789.892 38.9013 789.591 39.4217C789.38 40.699 789.479 42.0082 789.878 43.2396C790.912 45.9493 791.77 48.7228 792.446 51.5428" fill="#FFBE9D"/>
<path d="M779.968 43.5734C780.077 40.8807 782.296 30.2728 782.374 27.5801C784.198 28.1388 785.253 30.0788 785.594 31.9567C785.936 33.8346 785.757 35.7669 786.083 37.6448C786.518 40.1668 787.829 42.4405 789.148 44.6288C790.468 46.8171 791.849 49.0442 792.446 51.5274C793.044 54.0106 795.294 60.467 793.541 62.3294" fill="#FFBE9D"/>
<path d="M779.464 61.7319L768.67 113.01C768.29 115.338 727.759 150.685 727.759 150.685L735.76 182.648L788.528 131.021C792.338 126.948 794.411 121.551 794.309 115.974L793.409 67.8623L779.464 61.7319Z" fill="#FFBE9D"/>
<path d="M777.617 43.8994L779.464 61.7474L793.432 67.8933C793.432 67.8933 793.603 66.6285 794.208 60.4438C794.868 53.6305 787.542 50.705 784.275 45.6998C782.878 43.5502 783.243 39.5926 782.164 34.6883C782.04 34.1218 781.264 30.6919 780.845 28.8528C780.625 27.8308 780.026 26.9299 779.169 26.3308C778.533 25.9117 777.819 25.7022 777.299 26.3308C776.779 26.9593 777.617 43.8994 777.617 43.8994Z" fill="#FFBE9D"/>
<path d="M786.339 64.6964C787.891 63.3539 788.264 60.9483 787.682 58.954C786.969 56.9902 785.845 55.2015 784.384 53.7082C782.925 52.2187 781.698 50.5184 780.744 48.6642C780.155 47.3295 779.875 45.8551 779.192 44.5437C778.51 43.2322 777.353 42.0294 775.894 41.9751C777.066 49.3549 777.035 53.6151 779.433 61.701" fill="#FFBE9D"/>
<path d="M777.346 50.4023C777.346 50.4023 777.291 50.2005 777.206 49.8125C777.12 49.4245 776.973 48.7804 776.833 48.1208C776.5 46.5688 776.057 44.59 775.6 42.3164L775.553 42.0991H775.778C776.256 42.0817 776.732 42.1591 777.18 42.3269C777.627 42.4948 778.037 42.7496 778.385 43.0768C779.451 44.0908 780.209 45.3844 780.574 46.8094C780.883 47.9169 781.291 48.9947 781.792 50.0298C782.172 50.7097 782.63 51.3426 783.158 51.9155C783.35 52.1356 783.507 52.3843 783.623 52.6527C783.411 52.4558 783.214 52.2431 783.034 52.0164C782.456 51.4707 781.955 50.8494 781.544 50.1695C780.995 49.131 780.549 48.0422 780.209 46.918C779.848 45.5643 779.123 44.3352 778.114 43.364C777.484 42.7733 776.649 42.453 775.786 42.4716L775.972 42.2388C776.911 46.9103 777.516 50.41 777.346 50.4023Z" fill="#7C5142"/>
<path d="M783.623 45.8625C783.06 43.4618 782.63 41.0318 782.335 38.5836C781.904 36.1548 781.606 33.7041 781.443 31.2427C782.01 33.6452 782.44 36.078 782.731 38.5293C783.162 40.9556 783.46 43.4037 783.623 45.8625Z" fill="#7C5142"/>
<path d="M788.07 46.4679C788.07 46.4679 788.124 46.5455 788.171 46.7395H788.054C787.477 45.0792 787.006 43.3842 786.642 41.6644C786.308 40.1668 786.068 38.801 785.92 37.7844C785.8 37.2527 785.754 36.707 785.781 36.1626C785.897 36.1626 786.37 38.576 787.038 41.5946C787.573 44.008 788.07 46.0411 788.171 46.724H788.054C788.047 46.561 788.047 46.4679 788.07 46.4679Z" fill="#7C5142"/>
<path d="M790.825 56.3001C790.763 56.3001 790.483 55.8966 789.924 55.2991C788.448 53.7308 786.445 52.7634 784.298 52.5831C783.85 52.587 783.401 52.5585 782.956 52.4977C783.386 52.3311 783.847 52.2622 784.306 52.296C785.425 52.31 786.526 52.5696 787.533 53.0563C788.54 53.5431 789.428 54.2451 790.134 55.1128C790.452 55.4508 790.688 55.8569 790.825 56.3001Z" fill="#7C5142"/>
<path d="M780.729 63.1443C780.345 62.4765 780.035 61.7687 779.805 61.0336C779.168 59.2923 778.634 57.5148 778.207 55.7102C777.773 53.9207 777.446 52.1068 777.229 50.2782C777.102 49.5091 777.055 48.7289 777.089 47.9502C777.284 48.6917 777.424 49.4464 777.508 50.2084C777.741 51.5974 778.098 53.5219 778.595 55.6404C779.092 57.7588 779.65 59.6135 780.077 60.9637C780.345 61.6746 780.563 62.4032 780.729 63.1443Z" fill="#7C5142"/>
<path d="M718.284 151.608C718.976 150.549 720.048 149.797 721.279 149.508C722.51 149.219 723.805 149.415 724.896 150.056C730.592 145.4 736.419 140.884 742.115 136.251C740.253 145.563 739.011 158.545 743.178 167.066C743.178 167.066 748.432 176.828 756.797 175.338L749.332 182.648L737.56 193.566" fill="#FFDE40"/>
<path d="M716.437 155.954C716.446 154.705 716.827 153.486 717.531 152.454C718.126 151.352 719.033 150.451 720.139 149.862C718.385 151.528 717.108 153.63 716.437 155.954Z" fill="#263238"/>
<path d="M722.591 161.696C722.268 161.179 722.047 160.605 721.939 160.005C721.604 158.566 721.564 157.073 721.822 155.618C722.079 154.163 722.628 152.775 723.437 151.539C723.745 151.009 724.151 150.543 724.632 150.165C724.686 150.212 724.236 150.739 723.685 151.717C722.968 152.954 722.472 154.306 722.219 155.713C721.976 157.123 721.976 158.564 722.219 159.974C722.413 160.982 722.653 161.634 722.591 161.696Z" fill="#263238"/>
<path d="M751.101 181.624C750.529 181.98 749.902 182.242 749.247 182.4C747.454 182.832 745.578 182.776 743.815 182.237C741.203 181.408 738.917 179.779 737.281 177.581C735.315 174.886 733.988 171.778 733.401 168.494C732.305 162.58 731.992 156.548 732.469 150.553C732.648 148.225 732.904 146.409 733.121 145.121C733.222 144.485 733.315 143.996 733.385 143.662C733.409 143.49 733.451 143.321 733.509 143.158C733.515 143.332 733.499 143.507 733.463 143.678L733.276 145.144C733.114 146.417 732.896 148.248 732.757 150.576C732.36 156.546 732.709 162.541 733.796 168.424C734.377 171.623 735.663 174.653 737.56 177.294C739.129 179.469 741.341 181.098 743.884 181.95C745.602 182.503 747.433 182.602 749.2 182.237C749.847 182.076 750.482 181.871 751.101 181.624Z" fill="#FAFAFA"/>
<path d="M660.883 240.204C660.775 240.204 660.682 229.17 660.682 215.566C660.682 201.963 660.775 190.928 660.883 190.928C660.992 190.928 661.085 201.955 661.085 215.566C661.085 229.177 661 240.204 660.883 240.204Z" fill="#263238"/>
<path d="M660.263 182.415C660.177 182.415 660.201 181.313 659.82 179.598C659.594 178.596 659.269 177.619 658.85 176.681C658.329 175.539 657.686 174.457 656.934 173.453C656.16 172.462 655.283 171.557 654.318 170.752C653.524 170.103 652.669 169.531 651.765 169.045C650.213 168.23 649.135 167.958 649.158 167.881C649.423 167.894 649.684 167.947 649.934 168.036C650.228 168.109 650.516 168.205 650.795 168.323C651.176 168.454 651.547 168.613 651.905 168.797C652.837 169.253 653.717 169.81 654.528 170.457C655.524 171.271 656.427 172.192 657.221 173.204C657.995 174.234 658.646 175.352 659.161 176.533C659.583 177.499 659.898 178.509 660.1 179.544C660.179 179.939 660.234 180.338 660.263 180.739C660.299 181.04 660.314 181.344 660.309 181.647C660.323 181.904 660.308 182.162 660.263 182.415Z" fill="#263238"/>
<path d="M713.411 150.188C713.475 150.403 713.519 150.624 713.543 150.848C713.647 151.477 713.715 152.112 713.745 152.749C713.837 155.103 713.509 157.455 712.775 159.694C711.681 163.033 709.743 166.032 707.149 168.401C703.894 171.245 699.808 172.96 695.499 173.29C691.19 173.62 686.889 172.547 683.24 170.232C680.323 168.28 677.96 165.607 676.38 162.472C675.322 160.368 674.647 158.092 674.386 155.752C674.323 155.118 674.294 154.48 674.3 153.843C674.282 153.621 674.282 153.398 674.3 153.176C674.337 153.394 674.355 153.614 674.355 153.835C674.375 154.469 674.426 155.1 674.51 155.729C674.828 158.035 675.536 160.271 676.605 162.34C678.188 165.412 680.531 168.027 683.411 169.937C686.994 172.19 691.205 173.235 695.426 172.918C699.647 172.601 703.655 170.939 706.861 168.176C709.428 165.856 711.357 162.917 712.464 159.64C713.208 157.433 713.575 155.116 713.551 152.788C713.551 151.965 713.481 151.329 713.419 150.894C713.357 150.46 713.403 150.196 713.411 150.188Z" fill="#263238"/>
<path d="M660.216 217.514C660.216 217.622 653.768 215.597 645.899 212.997C638.03 210.398 631.675 208.202 631.714 208.093C631.752 207.984 638.154 210.01 646.031 212.609C653.907 215.209 660.247 217.405 660.216 217.514Z" fill="#FAFAFA"/>
<path d="M736.784 206.743C736.784 206.859 719.673 207.022 698.566 207.108C677.459 207.193 660.34 207.177 660.34 207.108C660.34 207.038 677.451 206.828 698.566 206.743C719.681 206.658 736.784 206.634 736.784 206.743Z" fill="#FAFAFA"/>
<path d="M737.172 213.502C737.172 213.611 719.968 213.704 698.76 213.704C677.552 213.704 660.34 213.611 660.34 213.502C660.34 213.393 677.536 213.3 698.76 213.3C719.984 213.3 737.172 213.386 737.172 213.502Z" fill="#FAFAFA"/>
<path d="M726.634 221.712C726.581 221.928 726.509 222.138 726.417 222.34C726.246 222.775 726.013 223.365 725.726 224.11L725.214 225.382C725.012 225.848 724.772 226.337 724.523 226.872C724.011 227.928 723.483 229.154 722.746 230.442L721.629 232.475C721.241 233.181 720.775 233.88 720.325 234.625C719.44 236.122 718.354 237.628 717.221 239.234C714.701 242.647 711.926 245.864 708.918 248.856C705.867 251.807 702.596 254.521 699.133 256.973C697.503 258.06 695.974 259.123 694.477 259.976C693.701 260.411 693.018 260.861 692.304 261.241L690.224 262.312C688.928 263.018 687.687 263.531 686.623 264.019C686.088 264.252 685.591 264.485 685.126 264.679L683.838 265.168L682.061 265.828C681.856 265.915 681.642 265.983 681.424 266.029C681.618 265.92 681.82 265.826 682.029 265.75L683.783 265.02L685.048 264.501C685.514 264.299 686.003 264.058 686.53 263.81C687.586 263.306 688.812 262.778 690.092 262.056L692.133 260.97C692.839 260.582 693.545 260.124 694.29 259.689C695.788 258.828 697.301 257.757 698.946 256.671C705.858 251.793 711.938 245.832 716.949 239.017C718.075 237.426 719.169 235.913 720.053 234.446C720.511 233.709 720.985 233.018 721.38 232.32L722.506 230.302C723.282 229.037 723.802 227.819 724.329 226.771C724.585 226.244 724.841 225.763 725.051 225.305C725.26 224.847 725.431 224.428 725.594 224.048C725.912 223.318 726.168 222.744 726.37 222.309C726.448 222.106 726.536 221.906 726.634 221.712Z" fill="#263238"/>
<g opacity="0.3">
<path d="M723.483 228.432C718.269 234.78 712.806 239.381 705.146 242.346C701.476 243.758 697.635 244.728 694.081 246.412C690.527 248.096 687.174 250.633 685.545 254.226C684.311 257.004 684.908 261.21 687.873 261.816C689.024 261.957 690.193 261.777 691.248 261.296C706.419 255.794 716.391 241.896 723.437 228.432" fill="black"/>
</g>
<path d="M669.218 90.3662C665.943 92.9348 665.726 97.7382 665.889 101.898C666.052 106.057 666.098 110.791 663.064 113.662C660.581 116.029 656.235 116.905 655.521 120.265C655.341 121.057 655.413 121.886 655.728 122.634C656.043 123.382 656.585 124.013 657.277 124.437C657.97 124.862 658.778 125.058 659.587 124.998C660.397 124.939 661.168 124.627 661.791 124.107C660.736 126.737 661.217 130.105 663.46 131.867C665.702 133.628 669.621 132.79 670.444 130.09C670.317 130.536 670.282 131.004 670.341 131.465C670.4 131.926 670.552 132.37 670.788 132.77C671.024 133.17 671.338 133.518 671.713 133.793C672.087 134.068 672.513 134.264 672.966 134.369C673.418 134.474 673.887 134.487 674.345 134.405C674.802 134.324 675.238 134.15 675.626 133.895C676.014 133.64 676.347 133.309 676.603 132.921C676.859 132.534 677.034 132.099 677.117 131.642" fill="#263238"/>
<path d="M716.74 120.483C716.896 121.028 717.162 121.535 717.523 121.973C717.883 122.411 718.33 122.77 718.835 123.028C719.339 123.285 719.892 123.437 720.458 123.472C721.024 123.508 721.591 123.426 722.124 123.233C722.657 123.04 723.145 122.74 723.557 122.35C723.969 121.961 724.297 121.491 724.52 120.97C724.742 120.448 724.856 119.887 724.852 119.32C724.849 118.753 724.729 118.192 724.5 117.674C723.856 116.06 722.172 114.841 722.133 113.111C722.032 111.016 724.236 109.627 726.168 108.812C728.101 107.997 730.366 106.911 730.669 104.839C730.972 102.767 729.241 101.176 727.798 99.7559C726.355 98.3359 724.966 96.1786 725.982 94.4248C726.502 93.5324 727.534 93.0513 728.201 92.2675C729.707 90.5293 729.102 87.6115 727.363 86.1294C725.625 84.6472 723.134 84.3058 720.86 84.5774C718.587 84.849 716.414 85.7026 714.187 86.2535C710.494 87.1449 706.656 87.2603 702.916 86.5924C699.176 85.9246 695.615 84.488 692.459 82.3735" fill="#263238"/>
<path d="M671.445 106.368L679.43 152.648C679.761 154.585 680.472 156.438 681.522 158.098C682.572 159.759 683.94 161.196 685.548 162.326C687.156 163.455 688.972 164.256 690.89 164.68C692.809 165.105 694.792 165.146 696.727 164.8C700.392 164.144 703.679 162.139 705.939 159.18C708.2 156.222 709.271 152.524 708.941 148.815C708.576 144.71 708.266 141.311 708.266 141.311C708.266 141.311 719.859 138.331 718.858 126.567C718.37 120.871 716.422 109.223 714.528 98.7006C713.547 93.2544 710.551 88.3774 706.136 85.04C701.722 81.7026 696.213 80.1495 690.705 80.6897L689.572 80.7983C686.686 81.2507 683.92 82.2765 681.436 83.8154C678.953 85.3543 676.803 87.3749 675.114 89.7582C673.424 92.1415 672.229 94.839 671.599 97.6917C670.969 100.544 670.916 103.494 671.445 106.368Z" fill="#FFBE9D"/>
<path d="M712.053 106.297C712.103 106.735 711.979 107.175 711.708 107.523C711.436 107.87 711.039 108.096 710.602 108.152C710.39 108.191 710.172 108.187 709.962 108.14C709.752 108.093 709.554 108.004 709.378 107.879C709.203 107.754 709.055 107.594 708.942 107.411C708.83 107.227 708.756 107.023 708.724 106.81C708.673 106.372 708.797 105.932 709.069 105.585C709.34 105.237 709.738 105.011 710.175 104.955C710.387 104.916 710.604 104.92 710.814 104.967C711.025 105.014 711.223 105.103 711.398 105.228C711.574 105.354 711.722 105.513 711.834 105.696C711.947 105.88 712.021 106.084 712.053 106.297Z" fill="#263238"/>
<path d="M712.565 104.691C712.379 104.924 711.013 104.109 709.205 104.288C707.397 104.466 706.155 105.506 705.938 105.304C705.837 105.211 706.008 104.8 706.543 104.319C707.274 103.699 708.18 103.322 709.135 103.24C710.075 103.147 711.02 103.353 711.836 103.83C712.433 104.203 712.658 104.583 712.565 104.691Z" fill="#263238"/>
<path d="M694.36 108.37C694.404 108.807 694.277 109.244 694.004 109.588C693.732 109.933 693.337 110.158 692.901 110.217C692.689 110.254 692.472 110.249 692.263 110.202C692.053 110.154 691.855 110.066 691.68 109.941C691.505 109.815 691.357 109.657 691.244 109.474C691.131 109.29 691.056 109.087 691.023 108.874C690.977 108.437 691.102 107.999 691.373 107.653C691.644 107.307 692.039 107.08 692.474 107.019C692.687 106.982 692.905 106.987 693.116 107.035C693.327 107.083 693.526 107.172 693.701 107.298C693.877 107.424 694.026 107.583 694.139 107.767C694.252 107.951 694.327 108.156 694.36 108.37Z" fill="#263238"/>
<path d="M694.818 106.755C694.632 106.996 693.266 106.181 691.458 106.36C689.65 106.538 688.416 107.578 688.191 107.376C688.09 107.283 688.261 106.872 688.796 106.391C689.529 105.773 690.434 105.396 691.388 105.312C692.328 105.215 693.275 105.421 694.088 105.902C694.686 106.274 694.88 106.655 694.818 106.755Z" fill="#263238"/>
<path d="M702.694 119.536C702.694 119.427 703.781 119.125 705.573 118.713C706.031 118.62 706.466 118.488 706.512 118.162C706.499 117.684 706.345 117.219 706.07 116.828L704.355 113.444C701.973 108.618 700.203 104.637 700.397 104.544C700.591 104.451 702.679 108.284 705.053 113.08L706.706 116.494C707.05 117.022 707.196 117.654 707.118 118.279C707.071 118.453 706.984 118.614 706.864 118.749C706.744 118.884 706.595 118.988 706.427 119.055C706.176 119.147 705.916 119.209 705.651 119.241C704.681 119.459 703.688 119.558 702.694 119.536Z" fill="#263238"/>
<path d="M694.593 99.616C694.461 100.128 692.637 100.066 690.542 100.532C688.447 100.997 686.779 101.742 686.46 101.308C686.313 101.114 686.561 100.617 687.236 100.074C688.098 99.3931 689.109 98.9252 690.185 98.7081C691.259 98.4716 692.374 98.4956 693.437 98.7779C694.22 99.034 694.647 99.3832 694.593 99.616Z" fill="#263238"/>
<path d="M711.393 99.5151C711.114 99.9574 709.841 99.6548 708.289 99.7789C706.737 99.9031 705.55 100.33 705.185 99.9264C705.038 99.7324 705.185 99.2978 705.713 98.8555C706.408 98.306 707.257 97.986 708.142 97.9398C709.024 97.8678 709.906 98.0741 710.664 98.5296C711.292 98.9021 711.51 99.3056 711.393 99.5151Z" fill="#263238"/>
<path d="M682.961 92.2133L682.899 92.2753C681.169 93.9349 680.146 96.1974 680.043 98.592C680.043 98.6773 680.043 98.7627 680.043 98.8325C679.911 102.239 680.322 105.646 680.159 109.045C679.996 112.444 679.166 115.967 676.908 118.52C675.984 119.567 674.246 120.398 673.299 119.365C672.97 118.931 672.771 118.411 672.725 117.868C671.313 109.828 668.395 102.852 667.588 94.3705C667.472 93.2363 667.63 92.0909 668.047 91.0298C668.464 89.9688 669.129 89.0229 669.986 88.2712C671.631 86.8201 673.672 85.2913 675.736 86.0363C677.8 86.7813 680.71 90.2189 682.394 91.6313" fill="#263238"/>
<path d="M675.93 111.303C675.721 111.241 667.611 109.704 668.651 117.72C669.691 125.736 677.529 123.043 677.513 122.811C677.498 122.578 675.93 111.303 675.93 111.303Z" fill="#FFBE9D"/>
<path d="M674.704 120.095C674.704 120.095 674.58 120.211 674.355 120.343C674.201 120.437 674.03 120.5 673.851 120.528C673.673 120.556 673.49 120.549 673.315 120.506C672.43 120.304 671.538 119.047 671.313 117.612C671.203 116.925 671.248 116.222 671.445 115.555C671.489 115.295 671.595 115.049 671.755 114.838C671.914 114.627 672.122 114.458 672.36 114.345C672.515 114.284 672.686 114.279 672.845 114.33C673.003 114.38 673.139 114.485 673.23 114.624C673.369 114.834 673.338 115.004 673.385 115.012C673.431 115.02 673.54 114.857 673.431 114.531C673.361 114.337 673.227 114.173 673.051 114.065C672.814 113.935 672.537 113.899 672.275 113.965C671.954 114.073 671.665 114.262 671.437 114.513C671.209 114.764 671.049 115.07 670.971 115.4C670.719 116.149 670.653 116.948 670.777 117.728C671.041 119.334 672.066 120.739 673.268 120.925C673.492 120.961 673.721 120.946 673.937 120.88C674.154 120.814 674.352 120.7 674.518 120.545C674.704 120.289 674.704 120.103 674.704 120.095Z" fill="#7C5142"/>
<path d="M675.573 87.309C673.245 84.2826 678.258 79.13 682.107 77.4927C685.956 75.8553 691.38 77.2754 695.462 78.1988C698.031 78.7886 700.63 79.6965 703.222 79.3318C704.96 78.9845 706.636 78.3804 708.196 77.5392C709.754 76.684 711.471 76.1559 713.24 75.9872C714.126 75.9197 715.014 76.0959 715.807 76.4967C716.601 76.8974 717.269 77.5075 717.741 78.2609C718.564 79.8129 717.826 82.1409 716.104 82.5677C716.633 82.2031 717.244 81.9726 717.882 81.896C718.521 81.8194 719.169 81.8989 719.77 82.1278C720.371 82.3567 720.907 82.7281 721.333 83.21C721.759 83.692 722.061 84.2701 722.215 84.8948C722.368 85.5194 722.367 86.1719 722.212 86.7962C722.058 87.4205 721.754 87.9979 721.327 88.4788C720.9 88.9598 720.362 89.3298 719.761 89.5573C719.159 89.7847 718.511 89.8627 717.873 89.7845C718.936 88.8067 720.829 90.0716 720.829 91.5072C720.829 92.9428 719.627 94.1223 718.37 94.8285C715.157 96.6288 711.199 96.5357 707.614 95.7054C704.029 94.8751 700.63 93.3774 697.061 92.4462C693.491 91.515 687.508 89.8388 684.171 91.3986C681.719 92.5393 680.245 95.7752 678.739 95.2786C678.027 94.9829 677.394 94.5241 676.891 93.9392C676.388 93.3542 676.03 92.6595 675.845 91.9107C675.498 90.4055 675.398 88.854 675.55 87.3168" fill="#263238"/>
<path d="M676.031 112.676C676.131 116.939 676.619 121.183 677.49 125.356C678.36 129.544 680.347 133.419 683.24 136.57C687.12 140.55 692.211 144.33 697.72 145.268C703.734 146.262 711.091 145.005 715.987 141.388C718.315 139.674 719.999 135.956 719.277 133.147C720.263 132.682 721.107 131.962 721.72 131.062C722.334 130.161 722.697 129.113 722.769 128.026C722.894 125.853 721.567 123.137 719.852 122.85C721.14 122.633 721.512 120.584 721.023 119.428C720.535 118.271 718.835 117.922 717.547 118.171C716.274 118.504 715.09 119.113 714.078 119.955C713.073 120.799 711.938 121.475 710.718 121.957C706.559 123.308 702.345 119.629 697.976 119.808C694.026 119.963 690.511 123.246 686.592 122.695C685.504 122.487 684.472 122.053 683.563 121.421C682.654 120.789 681.888 119.972 681.316 119.024C680.105 117.17 680.633 110.317 680.159 108.16" fill="#263238"/>
<g opacity="0.6">
<path d="M707.731 131.153C707.403 131.077 707.082 130.978 706.768 130.858C706.008 130.641 705.208 130.601 704.431 130.743C703.653 130.884 702.918 131.202 702.283 131.673C701.786 132.03 701.507 132.317 701.507 132.278C701.507 132.239 701.662 131.898 702.136 131.502C702.773 130.941 703.552 130.565 704.387 130.414C705.223 130.264 706.084 130.345 706.877 130.649C707.451 130.843 707.754 131.114 707.731 131.153Z" fill="#455A64"/>
</g>
<path d="M699.233 122.237C699.528 122.19 699.722 124.153 701.561 125.341C703.401 126.528 705.441 126.155 705.488 126.427C705.527 126.543 705.061 126.854 704.176 126.963C703.03 127.097 701.873 126.822 700.91 126.187C699.987 125.57 699.341 124.618 699.109 123.533C698.931 122.741 699.101 122.237 699.233 122.237Z" fill="white"/>
<path d="M693.398 143.957C693.573 143.997 693.743 144.06 693.902 144.143C694.236 144.267 694.725 144.438 695.369 144.617C697.194 145.11 699.067 145.404 700.956 145.493C702.249 145.57 703.547 145.544 704.836 145.416C706.323 145.283 707.792 144.997 709.22 144.562C710.797 144.091 712.302 143.405 713.69 142.521C715.2 141.61 716.518 140.414 717.57 138.998C718.82 137.332 719.376 135.246 719.122 133.178V133.015L719.262 132.953C720.227 132.505 721.063 131.818 721.691 130.959C721.995 130.553 722.256 130.116 722.467 129.655C722.652 129.207 722.767 128.734 722.808 128.251C722.893 127.377 722.768 126.495 722.444 125.678C722.12 124.862 721.607 124.135 720.946 123.556L720.829 123.463L720.923 123.346C721.273 122.902 721.501 122.375 721.585 121.815C721.67 121.256 721.607 120.685 721.404 120.157C721.244 119.757 721.003 119.394 720.696 119.092C720.389 118.79 720.022 118.556 719.619 118.403C719.105 118.198 718.548 118.121 717.997 118.178C717.617 118.225 717.431 118.295 717.423 118.271C717.602 118.186 717.793 118.129 717.989 118.101C718.726 117.981 719.482 118.109 720.139 118.464C720.796 118.819 721.317 119.382 721.621 120.064C721.851 120.633 721.929 121.252 721.847 121.86C721.765 122.468 721.527 123.044 721.155 123.533V123.323C721.864 123.928 722.419 124.694 722.772 125.556C723.126 126.419 723.268 127.353 723.188 128.282C723.149 128.815 723.026 129.339 722.824 129.834C722.599 130.32 722.326 130.783 722.009 131.215C721.348 132.136 720.461 132.872 719.433 133.349L719.549 133.116C719.861 135.289 719.303 137.498 717.997 139.262C716.914 140.719 715.556 141.95 714.001 142.886C712.584 143.788 711.044 144.48 709.43 144.943C707.977 145.379 706.481 145.66 704.968 145.781C703.653 145.885 702.333 145.885 701.018 145.781C699.115 145.662 697.232 145.32 695.408 144.764C694.913 144.61 694.429 144.426 693.957 144.213C693.762 144.148 693.574 144.062 693.398 143.957Z" fill="#455A64"/>
<path d="M658.222 123.478C658.073 123.437 657.934 123.369 657.811 123.277C657.461 123.015 657.192 122.66 657.035 122.252C656.772 121.597 656.715 120.877 656.872 120.188C657.116 119.276 657.664 118.475 658.424 117.914C659.316 117.241 660.312 116.717 661.372 116.362C662.56 115.989 663.709 115.5 664.802 114.903C665.952 114.175 666.854 113.114 667.386 111.862C667.971 110.513 668.282 109.063 668.302 107.594C668.364 104.559 667.666 101.68 667.588 99.0033C667.511 96.3261 667.976 93.8273 669.194 92.1512C670.107 90.8075 671.492 89.8571 673.074 89.4895C673.503 89.404 673.943 89.3831 674.378 89.4274C674.53 89.445 674.68 89.4735 674.828 89.5128C674.253 89.4854 673.677 89.5297 673.113 89.6447C671.588 90.0475 670.265 90.9978 669.396 92.3141C668.263 93.9437 667.79 96.3649 667.93 98.9877C668.069 101.611 668.706 104.49 668.706 107.609C668.673 109.134 668.338 110.638 667.72 112.032C667.15 113.354 666.188 114.47 664.965 115.229C663.842 115.837 662.659 116.326 661.434 116.688C660.404 117.014 659.433 117.501 658.555 118.132C657.835 118.642 657.307 119.38 657.058 120.227C656.889 120.872 656.918 121.554 657.143 122.182C657.348 122.723 657.727 123.179 658.222 123.478Z" fill="#455A64"/>
<path d="M716.399 82.4354C716.509 82.3685 716.626 82.3138 716.748 82.2724C716.895 82.2065 717.048 82.1546 717.206 82.1172C717.416 82.0551 717.632 82.0109 717.85 81.9853C718.574 81.9064 719.306 81.9933 719.992 82.2393C720.678 82.4853 721.298 82.8841 721.807 83.4054C722.316 84.0878 722.684 84.8645 722.891 85.6904C723.097 86.5163 723.138 87.3749 723.01 88.2166C722.858 89.2604 722.498 90.2632 721.951 91.1655C721.405 92.0679 720.683 92.8515 719.828 93.4701C717.861 94.9026 715.51 95.7134 713.077 95.7981C710.44 95.9019 707.803 95.6195 705.247 94.96C701.189 93.9638 697.337 92.2589 693.871 89.9238C692.39 88.9052 690.833 87.9999 689.215 87.2155C687.798 86.5598 686.272 86.1705 684.714 86.067C682.445 85.9103 680.173 86.3321 678.111 87.2931C676.66 87.976 675.969 88.5658 675.938 88.5192C676.575 87.9706 677.282 87.5087 678.041 87.1457C680.115 86.1199 682.42 85.6494 684.73 85.7799C686.338 85.8624 687.917 86.244 689.386 86.9051C691.027 87.6876 692.607 88.5929 694.112 89.6134C697.553 91.9023 701.366 93.5774 705.379 94.5642C707.895 95.2245 710.493 95.5173 713.093 95.4334C715.451 95.3508 717.732 94.5733 719.65 93.1985C720.473 92.6097 721.171 91.8635 721.704 91.003C722.237 90.1425 722.594 89.1849 722.754 88.1855C722.891 87.3767 722.866 86.5487 722.681 85.7496C722.496 84.9504 722.154 84.1958 721.675 83.5295C721.194 83.0249 720.607 82.6331 719.956 82.3823C719.305 82.1314 718.607 82.0276 717.912 82.0784C717.399 82.1583 716.893 82.2776 716.399 82.4354Z" fill="#455A64"/>
<path d="M712.286 75.5991C712.285 76.21 712.161 76.8144 711.921 77.3762C711.248 78.9201 710.079 80.1954 708.6 81.0001C707.601 81.5814 706.504 81.9759 705.364 82.1641C704.057 82.3546 702.729 82.3546 701.422 82.1641C698.651 81.8149 695.788 80.7285 692.777 79.7895C689.766 78.8506 686.732 78.2918 684.063 78.8661C681.697 79.3827 679.555 80.6318 677.94 82.4357C676.84 83.6389 675.997 85.0543 675.464 86.595C675.108 87.697 675.038 88.341 674.991 88.3333C674.972 88.1787 674.972 88.0223 674.991 87.8677C675.053 87.4213 675.149 86.9803 675.278 86.5485C675.76 84.9546 676.584 83.4849 677.692 82.2417C679.322 80.3576 681.515 79.0465 683.946 78.5014C686.709 77.8883 689.828 78.4548 692.855 79.4015C695.881 80.3482 698.721 81.4346 701.429 81.7916C702.703 81.9776 703.997 81.9776 705.271 81.7916C706.377 81.6243 707.444 81.2589 708.421 80.713C709.867 79.9543 711.03 78.7485 711.735 77.2753C711.963 76.7321 712.147 76.1716 712.286 75.5991Z" fill="#455A64"/>
</g>
</svg>
