<svg width="781" height="404" viewBox="0 0 781 404" fill="none" xmlns="http://www.w3.org/2000/svg">
<mask id="mask0_164_132" style="mask-type:alpha" maskUnits="userSpaceOnUse" x="0" y="0" width="781" height="404">
<rect width="781" height="404" rx="36" fill="#F5F5F5"/>
</mask>
<g mask="url(#mask0_164_132)">
<path d="M771.578 41.9106L473.546 63.9536L501.681 444.352L799.713 422.309L771.578 41.9106Z" fill="white"/>
<path d="M501.298 444.874V444.377L473.019 63.5262H473.516L772.044 41.3501V41.8471L800.244 422.738H799.747L501.298 444.874ZM474.082 64.401L502.173 443.811L799.21 421.823L771.119 42.4137L474.082 64.401Z" fill="#263238"/>
<path d="M745.28 58.5095L664.985 64.4482L665.367 69.603L745.661 63.6642L745.28 58.5095Z" fill="#263238"/>
<path d="M744.321 98.0776L743.834 98.167L742.413 98.3161L737.204 98.7933L719.978 100.225C713.249 100.771 707.165 101.219 702.752 101.497L697.524 101.805L696.102 101.865C695.937 101.882 695.77 101.882 695.605 101.865C695.762 101.811 695.926 101.781 696.092 101.775L697.514 101.616L702.722 101.149L719.978 99.7077C726.697 99.1511 732.781 98.7137 737.194 98.4255L742.422 98.1173L743.844 98.0577C744.003 98.0383 744.164 98.045 744.321 98.0776Z" fill="#263238"/>
<path d="M749.132 117.51C749.132 117.659 731.638 119.071 710.038 120.671C688.438 122.271 670.904 123.444 670.894 123.305C670.884 123.166 688.389 121.755 709.998 120.154C731.608 118.554 749.122 117.371 749.132 117.51Z" fill="#263238"/>
<path d="M750.454 142.291C750.454 142.44 732.96 143.851 711.36 145.452C689.76 147.052 672.266 148.235 672.266 148.086C672.266 147.937 689.76 146.535 711.37 144.935C732.98 143.335 750.444 142.152 750.454 142.291Z" fill="#263238"/>
<path d="M750.454 129.906C750.454 130.045 732.96 131.456 711.36 133.057C689.76 134.657 672.266 135.84 672.266 135.701C672.266 135.562 689.76 134.14 711.37 132.54C732.98 130.939 750.444 129.767 750.454 129.906Z" fill="#263238"/>
<path d="M586.235 303.418C586.235 303.557 577.17 304.352 565.968 305.177C554.765 306.002 545.67 306.569 545.66 306.42C545.65 306.271 554.725 305.496 565.928 304.661C577.13 303.826 586.225 303.279 586.235 303.418Z" fill="#263238"/>
<path d="M569.278 327.234C569.278 327.383 557.131 328.397 542.122 329.511C527.112 330.624 514.946 331.399 514.936 331.26C514.926 331.121 527.072 330.107 542.092 328.994C557.111 327.88 569.268 327.095 569.278 327.234Z" fill="#263238"/>
<path d="M668.29 329.252C668.29 329.391 634.136 332.036 591.991 335.157C549.845 338.278 515.651 340.693 515.641 340.554C515.631 340.415 549.785 337.761 591.951 334.64C634.116 331.519 668.29 329.113 668.29 329.252Z" fill="#263238"/>
<path d="M570.987 350.345C570.987 350.484 558.841 351.498 543.841 352.611C528.842 353.724 516.655 354.51 516.645 354.361C516.635 354.211 528.792 353.208 543.801 352.094C558.811 350.981 570.977 350.196 570.987 350.345Z" fill="#263238"/>
<path d="M669.98 352.353C669.98 352.502 635.826 355.146 593.68 358.267C551.535 361.388 517.341 363.794 517.331 363.655C517.321 363.516 551.475 360.871 593.641 357.75C635.806 354.629 669.97 352.214 669.98 352.353Z" fill="#263238"/>
<path d="M572.697 373.445C572.697 373.585 560.55 374.598 545.551 375.712C530.551 376.825 518.365 377.61 518.355 377.471C518.345 377.332 530.502 376.308 545.511 375.195C560.52 374.082 572.687 373.296 572.697 373.445Z" fill="#263238"/>
<path d="M671.689 375.453C671.689 375.603 637.536 378.247 595.39 381.368C553.244 384.489 519.051 386.904 519.041 386.755C519.031 386.606 553.185 383.972 595.35 380.851C637.516 377.73 671.68 375.314 671.689 375.453Z" fill="#263238"/>
<path d="M576.474 396.835C576.474 396.974 564.318 397.988 549.318 399.101C534.319 400.214 522.172 400.999 522.172 400.85C522.172 400.701 534.319 399.697 549.328 398.584C564.337 397.471 576.454 396.685 576.474 396.835Z" fill="#263238"/>
<path d="M675.467 398.842C675.467 398.991 641.303 401.635 599.157 404.806C557.012 407.977 522.818 410.343 522.808 410.194C522.798 410.044 556.962 407.41 599.117 404.289C641.273 401.168 675.447 398.703 675.467 398.842Z" fill="#263238"/>
<path d="M535.464 298.823L516.828 300.201L517.704 312.037L536.34 310.659L535.464 298.823Z" fill="#263238"/>
<path d="M530.756 311.079L523.272 311.632L523.546 315.34L531.031 314.786L530.756 311.079Z" fill="#263238"/>
<path d="M533.911 314.432C531.856 314.878 529.769 315.154 527.669 315.257C525.583 315.533 523.479 315.633 521.377 315.555C523.432 315.116 525.52 314.843 527.619 314.74C529.705 314.47 531.809 314.367 533.911 314.432Z" fill="#263238"/>
<path d="M686.053 285.367L697.702 278.976L709.173 283.329L698.428 290.088L686.053 285.367Z" fill="#263238"/>
<path d="M688.846 288.041L689.313 295.297L707.265 293.717L706.648 286.719L698.359 291.729L688.846 288.041Z" fill="#263238"/>
<path d="M759.738 286.778C759.738 286.928 750.673 287.713 739.47 288.538C728.268 289.363 719.173 289.929 719.163 289.79C719.153 289.651 728.228 288.856 739.431 288.021C750.633 287.186 759.738 286.639 759.738 286.778Z" fill="#263238"/>
<path d="M718.119 311.728C718.119 311.867 711.887 312.444 704.203 313.01C696.52 313.577 690.237 313.935 690.228 313.786C690.218 313.637 696.46 313.07 704.144 312.493C711.827 311.917 718.109 311.579 718.119 311.728Z" fill="#263238"/>
<path d="M769.32 317.99C769.32 318.139 751.796 319.551 730.167 321.151C708.537 322.752 690.973 323.935 690.963 323.795C690.953 323.656 708.487 322.235 730.127 320.634C751.766 319.034 769.31 317.891 769.32 317.99Z" fill="#263238"/>
<path d="M720.207 337.532C720.207 337.681 713.984 338.258 706.291 338.824C698.597 339.391 692.375 339.749 692.325 339.6C692.275 339.451 698.547 338.884 706.241 338.308C713.934 337.731 720.197 337.393 720.207 337.532Z" fill="#263238"/>
<path d="M771.408 343.834C771.408 343.984 753.883 345.395 732.254 346.995C710.624 348.596 693.07 349.779 693.051 349.639C693.031 349.5 710.575 348.079 732.214 346.478C753.854 344.878 771.398 343.705 771.408 343.834Z" fill="#263238"/>
<path d="M721.797 363.038C721.797 363.187 715.565 363.764 707.881 364.33C700.197 364.897 693.965 365.245 693.905 365.106C693.846 364.966 700.138 364.39 707.821 363.813C715.505 363.237 721.787 362.899 721.797 363.038Z" fill="#263238"/>
<path d="M772.998 369.35C772.998 369.499 755.474 370.911 733.844 372.511C712.215 374.111 694.651 375.294 694.641 375.155C694.631 375.016 712.165 373.594 733.804 371.994C755.444 370.394 772.988 369.211 772.998 369.35Z" fill="#263238"/>
<path d="M724.64 390.016C724.64 390.155 718.417 390.731 710.724 391.308C703.03 391.884 696.808 392.222 696.758 392.083C696.708 391.944 702.981 391.357 710.674 390.791C718.368 390.224 724.63 389.876 724.64 390.016Z" fill="#263238"/>
<path d="M775.841 396.328C775.841 396.467 758.317 397.878 736.687 399.488C715.058 401.099 697.504 402.272 697.494 402.123C697.484 401.973 715.008 400.572 736.647 398.972C758.287 397.371 775.831 396.178 775.841 396.328Z" fill="#263238"/>
<path d="M679.651 97.3224C680.434 96.9044 681.076 96.2666 681.5 95.4876C681.924 94.7087 682.111 93.8227 682.037 92.9389C682.036 92.3546 681.915 91.7767 681.682 91.2411C681.449 90.7054 681.108 90.2235 680.68 89.8251C680.253 89.4267 679.748 89.1204 679.197 88.9252C678.647 88.73 678.062 88.65 677.479 88.6903C676.896 88.7306 676.328 88.8902 675.809 89.1593C675.29 89.4284 674.832 89.8012 674.464 90.2546C674.095 90.7079 673.824 91.2322 673.666 91.7949C673.509 92.3575 673.469 92.9465 673.548 93.5254C673.604 94.4065 673.916 95.2522 674.446 95.9585C674.975 96.6648 675.7 97.2011 676.53 97.5014C670.079 98.9625 670.904 106.04 670.904 106.04L686.341 104.966C686.341 104.966 686.182 97.8294 679.651 97.3224Z" fill="#263238"/>
<path d="M704.8 197.537C704.8 197.687 698.527 198.263 690.764 198.84C683.001 199.416 676.699 199.764 676.689 199.625C676.679 199.486 682.961 198.899 690.725 198.323C698.488 197.746 704.79 197.398 704.8 197.537Z" fill="#263238"/>
<path d="M705.863 209.952C705.863 210.092 699.591 210.678 691.828 211.255C684.065 211.831 677.763 212.179 677.753 212.03C677.743 211.881 684.025 211.304 691.788 210.738C699.551 210.171 705.853 209.813 705.863 209.952Z" fill="#263238"/>
<path d="M760.394 194.883L714.67 198.273C714.26 198.303 713.855 198.169 713.544 197.901C713.233 197.632 713.041 197.251 713.01 196.842C712.98 196.432 713.114 196.027 713.382 195.715C713.651 195.404 714.032 195.212 714.441 195.182L760.165 191.792C760.369 191.776 760.573 191.8 760.767 191.863C760.961 191.927 761.14 192.028 761.294 192.161C761.449 192.294 761.575 192.457 761.666 192.639C761.757 192.821 761.812 193.02 761.825 193.223C761.842 193.427 761.817 193.631 761.754 193.825C761.691 194.019 761.59 194.198 761.456 194.352C761.323 194.507 761.161 194.633 760.978 194.724C760.796 194.815 760.597 194.87 760.394 194.883Z" fill="white"/>
<path d="M753.714 195.38L714.64 198.273C714.23 198.303 713.825 198.169 713.514 197.901C713.203 197.632 713.011 197.251 712.98 196.841C712.95 196.431 713.084 196.026 713.352 195.715C713.621 195.404 714.002 195.212 714.412 195.181L753.486 192.289C753.896 192.259 754.301 192.393 754.612 192.661C754.923 192.929 755.115 193.31 755.146 193.72C755.173 194.129 755.038 194.533 754.771 194.844C754.503 195.154 754.123 195.347 753.714 195.38Z" fill="#263238"/>
<path d="M761.259 206.563L715.535 209.943C715.125 209.973 714.72 209.839 714.409 209.571C714.097 209.302 713.905 208.921 713.875 208.511C713.847 208.102 713.982 207.698 714.25 207.388C714.518 207.077 714.897 206.884 715.306 206.851L761.03 203.472C761.233 203.455 761.438 203.48 761.632 203.543C761.825 203.606 762.005 203.708 762.159 203.841C762.314 203.974 762.44 204.136 762.531 204.319C762.622 204.501 762.676 204.7 762.69 204.903C762.72 205.313 762.586 205.718 762.318 206.029C762.05 206.341 761.669 206.533 761.259 206.563Z" fill="white"/>
<path d="M747.611 207.567L715.505 209.942C715.095 209.972 714.69 209.839 714.379 209.57C714.068 209.302 713.876 208.921 713.845 208.511C713.818 208.102 713.952 207.698 714.22 207.387C714.488 207.077 714.868 206.884 715.276 206.851L747.383 204.475C747.793 204.445 748.198 204.579 748.509 204.847C748.82 205.116 749.012 205.497 749.043 205.907C749.073 206.317 748.939 206.722 748.67 207.033C748.402 207.344 748.021 207.536 747.611 207.567Z" fill="#263238"/>
<path d="M707.215 222.626C707.215 222.765 700.943 223.351 693.18 223.918C685.417 224.485 679.115 224.842 679.105 224.703C679.095 224.564 685.377 223.978 693.14 223.401C700.903 222.825 707.205 222.477 707.215 222.626Z" fill="#263238"/>
<path d="M708.279 235.031C708.279 235.18 702.006 235.757 694.243 236.333C686.48 236.91 680.178 237.258 680.168 237.119C680.158 236.979 686.44 236.393 694.203 235.816C701.967 235.24 708.269 234.892 708.279 235.031Z" fill="#263238"/>
<path d="M762.809 219.962L717.085 223.351C716.676 223.381 716.27 223.248 715.959 222.979C715.648 222.711 715.456 222.33 715.425 221.92C715.395 221.51 715.529 221.105 715.798 220.794C716.066 220.482 716.447 220.29 716.857 220.26L762.581 216.87C762.991 216.84 763.396 216.974 763.707 217.242C764.018 217.511 764.21 217.892 764.241 218.302C764.257 218.505 764.233 218.709 764.169 218.903C764.106 219.097 764.005 219.276 763.872 219.431C763.739 219.585 763.576 219.712 763.394 219.803C763.211 219.894 763.013 219.948 762.809 219.962Z" fill="white"/>
<path d="M756.12 220.459L717.056 223.351C716.646 223.381 716.241 223.248 715.929 222.979C715.618 222.711 715.426 222.33 715.396 221.92C715.366 221.51 715.499 221.105 715.768 220.794C716.036 220.482 716.417 220.29 716.827 220.26L755.891 217.367C756.301 217.337 756.706 217.471 757.017 217.74C757.329 218.008 757.521 218.389 757.551 218.799C757.567 219.002 757.543 219.206 757.48 219.4C757.417 219.594 757.315 219.773 757.182 219.928C757.049 220.082 756.887 220.209 756.704 220.3C756.522 220.391 756.323 220.445 756.12 220.459Z" fill="#263238"/>
<path d="M763.714 231.641L717.99 235.031C717.58 235.061 717.175 234.927 716.864 234.659C716.552 234.39 716.36 234.009 716.33 233.6C716.3 233.19 716.434 232.785 716.702 232.473C716.971 232.162 717.351 231.97 717.761 231.94L763.485 228.55C763.895 228.52 764.3 228.654 764.612 228.922C764.923 229.191 765.115 229.572 765.145 229.981C765.175 230.391 765.042 230.796 764.773 231.108C764.505 231.419 764.124 231.611 763.714 231.641Z" fill="white"/>
<path d="M750.027 232.655L717.92 235.031C717.51 235.061 717.105 234.927 716.794 234.659C716.483 234.39 716.291 234.009 716.26 233.6C716.23 233.19 716.364 232.785 716.633 232.473C716.901 232.162 717.282 231.97 717.692 231.94L749.798 229.524C750.208 229.494 750.613 229.628 750.924 229.896C751.235 230.165 751.427 230.546 751.458 230.956C751.478 231.162 751.457 231.37 751.396 231.568C751.335 231.766 751.234 231.949 751.101 232.108C750.968 232.266 750.804 232.396 750.619 232.49C750.435 232.584 750.233 232.64 750.027 232.655Z" fill="#263238"/>
<path d="M709.879 248.261C709.879 248.41 703.597 248.987 695.834 249.563C688.071 250.14 681.769 250.488 681.759 250.348C681.749 250.209 688.031 249.623 695.794 249.046C703.557 248.47 709.869 248.122 709.879 248.261Z" fill="#263238"/>
<path d="M765.473 245.607L719.749 248.987C719.339 249.017 718.934 248.883 718.623 248.615C718.312 248.346 718.12 247.965 718.089 247.556C718.064 247.147 718.2 246.745 718.468 246.435C718.735 246.124 719.113 245.931 719.521 245.896L765.245 242.516C765.656 242.486 766.062 242.619 766.375 242.887C766.687 243.156 766.882 243.537 766.915 243.947C766.942 244.358 766.806 244.763 766.536 245.074C766.266 245.385 765.884 245.577 765.473 245.607Z" fill="white"/>
<path d="M745.096 247.108L719.71 248.987C719.3 249.017 718.895 248.883 718.583 248.615C718.272 248.346 718.08 247.965 718.05 247.555C718.025 247.147 718.16 246.744 718.428 246.434C718.695 246.124 719.073 245.931 719.481 245.895L744.828 244.017C745.237 243.989 745.641 244.124 745.951 244.392C746.262 244.66 746.455 245.039 746.488 245.448C746.518 245.852 746.39 246.251 746.13 246.561C745.87 246.871 745.499 247.068 745.096 247.108Z" fill="#263238"/>
<path d="M689.581 184.894L687.971 182.061C688.988 180.45 689.366 178.517 689.03 176.642C688.693 174.767 687.667 173.086 686.153 171.93C684.639 170.774 682.747 170.226 680.85 170.395C678.952 170.564 677.187 171.437 675.901 172.843C674.615 174.248 673.902 176.084 673.901 177.989C673.901 179.894 674.614 181.73 675.9 183.135C677.186 184.541 678.951 185.414 680.849 185.583C682.746 185.752 684.638 185.205 686.152 184.049L689.581 184.894Z" fill="#263238"/>
<path d="M748.337 174.109C748.337 174.258 737.751 175.162 724.66 176.097C711.569 177.031 700.953 177.737 700.943 177.598C700.933 177.458 711.529 176.554 724.62 175.61C737.711 174.665 748.327 173.969 748.337 174.109Z" fill="#263238"/>
<path d="M479.519 63.9039L498.505 288.498L666.024 276.033L647.933 51.0415L479.519 63.9039Z" fill="white"/>
<path d="M652.222 44.526L486.194 56.1479L501.983 281.706L668.011 270.084L652.222 44.526Z" fill="#FAFAFA"/>
<path d="M502.292 281.023V280.526L485.613 55.087H486.1L652.167 42.7515V43.2485L668.857 268.688H668.36L502.292 281.023ZM486.676 56.0015L503.286 279.96L667.863 267.773L651.253 43.825L486.676 56.0015Z" fill="#263238"/>
<path d="M618.401 77.3428C618.368 77.2189 618.345 77.0926 618.331 76.965C618.331 76.6867 618.242 76.319 618.172 75.8518C618.043 74.8578 617.854 73.3966 617.626 71.5577C617.397 69.7188 617.109 67.3928 616.781 64.7488C616.649 63.339 616.433 61.9383 616.135 60.5541C615.962 59.8122 615.656 59.1082 615.23 58.4766C614.791 57.8211 614.148 57.3285 613.401 57.0751C612.583 56.8487 611.72 56.8396 610.897 57.0488C610.074 57.258 609.32 57.6782 608.71 58.2679C607.399 59.6263 606.556 61.3674 606.304 63.2379C605.688 67.3715 605.809 71.5815 606.662 75.6729C607.05 77.8497 607.467 80.0961 607.964 82.3625C608.413 84.6705 609.236 86.8898 610.399 88.9328C611.62 91.0234 613.538 92.6174 615.817 93.4356C616.968 93.8429 618.207 93.9322 619.405 93.6941C620.615 93.443 621.731 92.8576 622.626 92.0043C624.41 90.2571 625.526 87.9389 625.777 85.4538C626.003 83.0229 625.939 80.5738 625.588 78.1579C625.051 73.3469 624.534 68.7149 624.037 64.2419C623.789 62.0352 623.55 59.8782 623.321 57.7908C623.093 55.7034 622.884 53.6657 622.506 51.7373C622.19 49.8719 621.618 48.059 620.807 46.3499C620.058 44.7833 618.967 43.4044 617.616 42.3142C615.214 40.4898 612.236 39.5901 609.226 39.7795C606.95 39.8521 604.761 40.6692 602.994 42.1055C601.909 43.0456 601.087 44.2512 600.608 45.6044C600.29 46.5387 600.221 47.0556 600.181 47.0556C600.235 46.5513 600.345 46.0546 600.509 45.5745C600.955 44.181 601.765 42.9319 602.855 41.9564C604.642 40.4565 606.875 39.5898 609.207 39.4912C612.294 39.2651 615.36 40.1656 617.834 42.0259C619.244 43.1378 620.382 44.555 621.164 46.1709C622.002 47.9104 622.597 49.7566 622.934 51.6578C623.311 53.6458 623.53 55.6338 623.779 57.7411C624.027 59.8484 624.256 61.9855 624.514 64.1921C625.011 68.6055 625.508 73.2475 626.085 78.0485C626.45 80.5065 626.517 82.9997 626.283 85.4737C626.02 88.0805 624.848 90.5117 622.973 92.3422C622.007 93.2549 620.806 93.8812 619.504 94.1513C618.221 94.4022 616.894 94.3096 615.658 93.8829C613.267 93.0162 611.252 91.343 609.962 89.1515C608.781 87.0558 607.945 84.7836 607.487 82.4221C606.99 80.1359 606.582 77.8994 606.195 75.7027C605.33 71.5454 605.212 67.2675 605.847 63.0689C606.139 61.1256 607.036 59.3239 608.411 57.92C609.075 57.2861 609.893 56.8377 610.785 56.6196C611.676 56.4016 612.609 56.4215 613.491 56.6775C614.304 56.965 615.002 57.5093 615.479 58.2281C615.92 58.8944 616.237 59.6354 616.413 60.415C616.703 61.8195 616.909 63.2402 617.029 64.6693C617.318 67.3133 617.576 69.6393 617.785 71.4782C617.994 73.3171 618.133 74.7683 618.242 75.7822C618.242 76.2593 618.322 76.6271 618.341 76.9054C618.375 77.0489 618.395 77.1954 618.401 77.3428Z" fill="#263238"/>
<path d="M550.223 69.3609L537.082 63.9038C533.533 66.1602 527.738 72.3727 526.148 79.3108C525.233 83.1118 524.897 87.0294 525.154 90.9307C525.373 95.1353 524.995 99.5884 522.669 103.097C521.009 105.592 518.335 107.769 518.285 110.771C518.236 114.22 521.804 117.192 521.079 120.572C520.492 123.275 517.48 124.637 515.91 126.913C513.624 130.214 514.727 134.726 516.218 138.454C519.816 147.45 512.162 160.391 518.902 167.349C525.552 161.892 545.213 151.773 551.863 146.316C553.427 145.215 554.722 143.774 555.65 142.102C556.803 139.567 556.177 136.635 555.58 133.921C550.909 112.738 549.107 91.0238 550.223 69.3609Z" fill="#263238"/>
<path d="M628.808 224.494L622.327 217.934L553.046 237.476C553.046 237.476 549.239 267.932 549.626 269.881C550.014 271.829 549.626 277.395 549.626 277.395L645.239 269.94C645.239 269.94 646.323 244.007 628.808 224.494Z" fill="#263238"/>
<path d="M571.782 250.975C571.691 251.252 571.557 251.514 571.385 251.75C571.097 252.217 570.679 252.903 570.083 253.738C569.393 254.686 568.6 255.552 567.717 256.323C566.596 257.241 565.306 257.93 563.92 258.35C561.437 259.142 558.842 259.528 556.236 259.493C555.452 259.491 554.669 259.444 553.89 259.354C553.598 259.352 553.309 259.298 553.036 259.195C553.036 259.116 554.268 259.195 556.236 259.126C558.791 259.05 561.323 258.622 563.761 257.853C565.087 257.423 566.321 256.749 567.399 255.865C568.272 255.127 569.071 254.304 569.785 253.41C571.027 251.949 571.713 250.925 571.782 250.975Z" fill="#455A64"/>
<path d="M594.575 273.956C594.444 273.655 594.354 273.337 594.307 273.012C594.167 272.406 593.979 271.511 593.78 270.398C593.362 268.181 592.875 265.11 592.497 261.69C592.12 258.271 591.921 255.15 591.841 252.903C591.841 251.78 591.782 250.915 591.792 250.229C591.759 249.897 591.779 249.561 591.851 249.235C592.042 250.437 592.161 251.648 592.209 252.863C592.388 255.1 592.637 258.201 593.014 261.611C593.392 265.02 593.819 268.092 594.138 270.318C594.365 271.52 594.511 272.735 594.575 273.956Z" fill="#455A64"/>
<path d="M601.195 272.366C601.046 272.366 600.459 267.217 599.883 260.845C599.306 254.474 598.889 249.295 599.078 249.275C599.267 249.255 599.813 254.424 600.39 260.795C600.966 267.167 601.334 272.356 601.195 272.366Z" fill="#455A64"/>
<path d="M634.792 236.82C634.609 237.106 634.392 237.37 634.146 237.605C633.709 238.092 633.063 238.778 632.158 239.593C631.167 240.55 630.085 241.409 628.927 242.158C627.489 243.086 625.881 243.721 624.196 244.026C622.493 244.298 620.747 244.103 619.147 243.46C617.863 242.935 616.656 242.24 615.558 241.392C614.82 240.832 614.117 240.228 613.451 239.583C613.189 239.365 612.955 239.114 612.755 238.838C612.815 238.768 613.888 239.752 615.737 241.094C616.83 241.882 618.019 242.526 619.276 243.013C620.804 243.599 622.461 243.771 624.077 243.51C625.693 243.221 627.239 242.624 628.629 241.75C629.781 241.033 630.868 240.219 631.88 239.315C633.699 237.774 634.732 236.76 634.792 236.82Z" fill="#455A64"/>
<path d="M640.09 256.104C639.809 256.32 639.502 256.501 639.176 256.64L636.621 257.972C634.464 259.105 631.512 260.726 628.361 262.674C625.21 264.622 622.397 266.55 620.409 267.972L618.073 269.662C617.802 269.893 617.501 270.087 617.178 270.238C617.407 269.967 617.664 269.721 617.944 269.503C618.461 269.055 619.226 268.429 620.19 267.674C625.255 263.77 630.716 260.409 636.482 257.644C637.585 257.117 638.47 256.71 639.126 256.451C639.429 256.291 639.754 256.174 640.09 256.104Z" fill="#455A64"/>
<path d="M576.892 247.983C576.822 247.983 576.584 247.506 576.265 246.661C575.858 245.551 575.565 244.402 575.391 243.232C575.221 242.044 575.289 240.835 575.59 239.673C575.685 239.182 575.893 238.719 576.196 238.321C575.853 239.911 575.756 241.543 575.908 243.162C576.076 244.305 576.312 245.437 576.613 246.552C576.787 247.009 576.881 247.493 576.892 247.983Z" fill="#455A64"/>
<path d="M581.066 248.231C580.828 247.787 580.664 247.307 580.579 246.81C580.258 245.639 580.041 244.441 579.933 243.231C579.892 242.567 579.926 241.9 580.033 241.243C580.14 240.693 580.324 240.161 580.579 239.663C581.017 238.818 581.464 238.43 581.504 238.47C581.338 238.931 581.139 239.38 580.907 239.812C580.505 240.908 580.349 242.078 580.45 243.241C580.54 244.613 580.808 245.855 580.947 246.77C581.068 247.247 581.108 247.741 581.066 248.231Z" fill="#455A64"/>
<path d="M606.662 245.826C606.65 243.346 606.136 240.894 605.15 238.619C604.164 236.343 602.728 234.291 600.927 232.586C601.582 232.938 602.168 233.406 602.656 233.968C603.91 235.257 604.92 236.762 605.638 238.411C606.353 240.059 606.761 241.824 606.841 243.619C606.912 244.36 606.852 245.107 606.662 245.826Z" fill="#455A64"/>
<path d="M611.264 244.216C610.815 241.981 610.204 239.781 609.435 237.635C608.495 235.571 607.405 233.577 606.175 231.671C606.706 232.097 607.163 232.607 607.527 233.182C609.469 235.848 610.725 238.951 611.185 242.218C611.314 242.876 611.341 243.55 611.264 244.216Z" fill="#455A64"/>
<path d="M593.66 240.786C593.66 240.786 593.839 240.518 594.356 240.279C595.096 239.957 595.93 239.925 596.692 240.19C597.231 240.366 597.712 240.686 598.084 241.114C598.505 241.621 598.746 242.254 598.77 242.913C598.797 243.635 598.607 244.349 598.223 244.961C598.015 245.295 597.743 245.585 597.422 245.814C597.101 246.042 596.738 246.205 596.354 246.293C595.614 246.445 594.844 246.347 594.166 246.014C593.488 245.681 592.939 245.132 592.607 244.454C592.355 243.851 592.292 243.185 592.428 242.545C592.504 241.98 592.735 241.447 593.094 241.005C593.655 240.426 594.408 240.072 595.211 240.011C595.357 239.986 595.507 239.992 595.65 240.028C595.794 240.064 595.929 240.129 596.046 240.219C595.775 240.197 595.502 240.197 595.231 240.219C594.509 240.348 593.853 240.72 593.372 241.273C593.083 241.67 592.904 242.136 592.855 242.625C592.75 243.18 592.812 243.755 593.034 244.275C593.334 244.841 593.808 245.296 594.386 245.571C594.965 245.847 595.616 245.929 596.245 245.806C596.858 245.631 597.394 245.254 597.766 244.736C598.138 244.218 598.324 243.59 598.293 242.953C598.285 242.392 598.097 241.848 597.756 241.402C597.437 241.027 597.031 240.737 596.573 240.557C595.886 240.288 595.128 240.264 594.426 240.488C593.929 240.637 593.74 240.826 593.66 240.786Z" fill="#455A64"/>
<path d="M531.734 144.289C531.188 144.955 515.244 155.113 512.848 161.654C510.453 168.194 514.309 194.873 514.975 199.485C515.641 204.098 524.687 221.512 524.687 221.512C524.687 221.512 522.788 229.027 525.273 233.659C526.888 236.524 529.307 238.853 532.231 240.359L548.255 231.582L538.315 186.593L531.734 144.289Z" fill="#263238"/>
<path d="M533.474 191.543C533.931 190.897 534.547 190.48 534.925 189.993C535.303 189.506 536.118 189.287 536.505 189.754C536.893 190.221 536.505 191.086 535.999 191.603C537.609 191.663 538.831 189.456 540.392 189.893C540.63 190.001 540.845 190.154 541.025 190.345C541.204 190.535 541.343 190.759 541.436 191.004C541.528 191.249 541.571 191.509 541.563 191.771C541.554 192.032 541.494 192.289 541.386 192.527C540.885 193.47 540.094 194.226 539.13 194.684C538.165 195.131 537.297 195.762 536.575 196.543C536.237 196.98 536.018 197.646 536.386 198.064C537.012 198.78 538.464 197.935 539.02 198.7C539.388 199.217 538.941 199.913 538.513 200.39C536.943 202.086 535.379 203.793 533.822 205.509C533.446 205.999 532.949 206.382 532.38 206.622C532.093 206.729 531.777 206.723 531.493 206.607C531.21 206.491 530.98 206.273 530.85 205.996C530.805 205.697 530.856 205.393 530.995 205.125C531.135 204.857 531.355 204.64 531.625 204.505C532.177 204.261 532.706 203.968 533.205 203.63C533.45 203.456 533.616 203.194 533.67 202.899C533.724 202.603 533.661 202.299 533.494 202.05C532.967 201.513 532.072 201.96 531.506 202.428L526.039 206.722C525.664 207.074 525.2 207.318 524.697 207.427C524.446 207.469 524.188 207.413 523.978 207.27C523.767 207.128 523.619 206.91 523.564 206.662C523.57 206.396 523.652 206.137 523.802 205.916C524.792 204.183 526.149 202.687 527.778 201.533C528.438 201.154 529.032 200.671 529.538 200.102C529.783 199.812 529.932 199.453 529.962 199.075C529.992 198.697 529.903 198.319 529.707 197.994C528.632 199.006 527.445 199.89 526.168 200.628C525.721 200.897 525.065 201.115 524.727 200.708C524.389 200.3 524.727 199.714 525.094 199.267L530.75 192.627C530.954 192.317 531.217 192.05 531.524 191.842C531.831 191.634 532.176 191.488 532.539 191.414L533.474 191.543Z" fill="white"/>
<path d="M541.356 129.736L540.064 137.599L528.295 147.022C528.295 147.022 525.512 164.775 528.166 182.806C528.166 182.806 545.412 229.524 545.829 231.512C546.614 235.299 553.572 238.47 553.572 238.47C553.572 238.47 579.844 238.719 588.869 237.416C597.895 236.114 619.683 222.347 621.771 220.518C623.858 218.689 626.214 209.902 626.214 209.902L610.151 164.914L609.246 133.265L585.241 127.102L577.09 120.8L541.356 129.736Z" fill="#263238"/>
<path d="M612.149 162.558C612.606 161.912 613.222 161.495 613.59 161.008C613.958 160.521 614.793 160.302 615.181 160.769C615.568 161.236 615.181 162.101 614.664 162.618C616.284 162.678 617.507 160.471 619.067 160.908C619.306 161.016 619.52 161.169 619.7 161.36C619.879 161.55 620.018 161.774 620.111 162.019C620.203 162.264 620.246 162.524 620.238 162.786C620.229 163.047 620.169 163.304 620.061 163.542C619.56 164.485 618.769 165.241 617.805 165.699C616.84 166.146 615.972 166.778 615.25 167.558C614.912 168.005 614.693 168.662 615.061 169.079C615.678 169.795 617.139 168.95 617.695 169.715C618.063 170.232 617.616 170.928 617.188 171.405C615.618 173.108 614.054 174.814 612.497 176.524C612.121 177.014 611.624 177.398 611.055 177.637C610.768 177.746 610.451 177.742 610.167 177.626C609.883 177.509 609.653 177.29 609.525 177.011C609.479 176.714 609.53 176.41 609.67 176.143C609.809 175.877 610.03 175.662 610.3 175.53C610.85 175.279 611.379 174.983 611.88 174.645C612.123 174.47 612.288 174.207 612.341 173.913C612.395 173.619 612.333 173.315 612.169 173.065C611.642 172.528 610.747 172.975 610.181 173.443L604.674 177.737C604.304 178.091 603.843 178.335 603.342 178.442C603.091 178.484 602.834 178.428 602.623 178.286C602.412 178.143 602.264 177.925 602.209 177.677C602.215 177.411 602.298 177.152 602.447 176.932C603.437 175.198 604.794 173.702 606.423 172.548C607.084 172.169 607.678 171.686 608.183 171.117C608.428 170.828 608.577 170.468 608.607 170.09C608.637 169.712 608.548 169.334 608.352 169.009C607.278 170.021 606.09 170.905 604.813 171.644C604.356 171.912 603.71 172.131 603.372 171.723C603.034 171.316 603.372 170.729 603.74 170.282C605.628 168.062 607.514 165.849 609.395 163.642C609.599 163.332 609.862 163.065 610.169 162.857C610.476 162.649 610.821 162.503 611.185 162.429L612.149 162.558Z" fill="white"/>
<path d="M608.859 133.415C608.859 133.415 622.149 138.076 625.628 146.028C629.107 153.98 642.426 191.752 641.591 198.71C640.756 205.668 638.54 213.62 632.516 213.978C626.492 214.336 619.594 208.203 619.594 208.203L614.187 199.406L614.475 190.192L608.332 165.66L608.859 133.415Z" fill="#263238"/>
<path d="M541.863 133.583C541.863 133.643 569.317 167.22 569.317 167.22L573.045 136.108L578.243 120.791L542.459 129.627L541.863 133.583Z" fill="#FFBE9D"/>
<g opacity="0.3">
<path d="M598.521 131.168C596.901 130.353 594.953 130.999 593.313 131.764C584.029 136.148 573.939 141.466 571.216 151.356L571.107 157.32C571.961 160.918 575.679 163.284 579.367 163.602C583.054 163.92 586.683 162.548 589.983 160.878C592.947 159.388 595.775 157.638 598.432 155.65C599.903 154.547 601.414 153.195 601.702 151.376C602.07 148.891 599.982 146.724 599.515 144.259C599.068 141.963 600.052 139.657 600.509 137.36C600.966 135.064 600.618 132.212 598.521 131.168Z" fill="black"/>
</g>
<path d="M528.136 182.856C528.25 183.036 528.34 183.229 528.404 183.432L529.08 185.122C529.647 186.603 530.462 188.74 531.436 191.394C533.424 196.702 535.899 204.108 538.712 212.268C540.134 216.344 541.515 220.22 542.788 223.729C543.424 225.489 544.01 227.168 544.626 228.699C545.196 230.121 545.898 231.485 546.724 232.775C547.937 234.632 549.533 236.208 551.406 237.397C552.747 238.222 553.572 238.54 553.543 238.59C553.336 238.539 553.136 238.465 552.946 238.371C552.38 238.145 551.831 237.876 551.306 237.566C549.352 236.425 547.683 234.855 546.426 232.973C545.561 231.68 544.825 230.305 544.229 228.868C543.583 227.318 542.986 225.648 542.33 223.898C541.038 220.389 539.637 216.523 538.225 212.437C535.442 204.306 532.927 196.941 531.088 191.563C530.174 188.929 529.428 186.792 528.891 185.232L528.305 183.502C528.227 183.293 528.171 183.076 528.136 182.856Z" fill="#263238"/>
<path d="M569.188 168.284C569.091 168.195 569.004 168.095 568.93 167.985L568.224 167.081C567.608 166.296 566.713 165.093 565.54 163.701C562.344 159.788 558.88 156.101 555.173 152.668L555.57 152.499C555.461 157.051 555.342 162.161 555.213 167.548C555.213 168.025 555.213 168.542 555.213 168.94V170.003L554.755 169.009C550.531 160.351 546.744 152.568 543.98 146.883C542.648 144.1 541.575 141.833 540.79 140.203C540.442 139.448 540.163 138.841 539.955 138.374C539.849 138.166 539.759 137.95 539.686 137.728C539.828 137.916 539.948 138.119 540.044 138.334C540.283 138.782 540.591 139.328 540.969 140.114L544.308 146.724C547.111 152.39 550.948 160.143 555.242 168.781L554.755 168.89C554.755 168.443 554.755 167.975 554.755 167.498C554.904 162.111 555.034 157.002 555.153 152.449V151.922L555.531 152.28C559.23 155.751 562.662 159.496 565.799 163.483C566.942 164.944 567.787 166.137 568.383 166.952L569.029 167.896C569.099 168.018 569.152 168.148 569.188 168.284Z" fill="#263238"/>
<path d="M608.272 192.567C608.382 192.667 600.32 201.245 590.38 211.722C580.44 222.198 572.21 230.608 572.111 230.518C572.011 230.429 580.013 221.851 590.003 211.364C599.992 200.877 608.173 192.468 608.272 192.567Z" fill="#263238"/>
<path d="M593.372 235.796C593.043 234.778 592.784 233.738 592.597 232.685C592.15 230.757 591.474 228.113 590.549 225.25C589.625 222.387 588.611 219.843 587.836 218.024C587.376 217.054 586.975 216.058 586.633 215.042C587.235 215.931 587.751 216.877 588.174 217.864C589.283 220.205 590.239 222.616 591.036 225.081C591.84 227.541 592.481 230.051 592.955 232.596C593.202 233.646 593.342 234.718 593.372 235.796Z" fill="#263238"/>
<path d="M526.078 181.206C523.765 179.95 521.537 178.542 519.409 176.991C517.178 175.59 515.043 174.043 513.017 172.359C515.335 173.611 517.566 175.016 519.697 176.564C521.924 177.969 524.056 179.52 526.078 181.206Z" fill="#263238"/>
<path d="M632.506 213.918C632.506 213.918 632.387 213.918 632.158 213.918H631.164C630.618 213.923 630.072 213.879 629.534 213.789C628.8 213.691 628.075 213.531 627.367 213.312C625.469 212.683 623.723 211.668 622.238 210.33C620.343 208.608 618.844 206.495 617.844 204.137C616.91 200.36 615.856 196.185 614.783 191.752C612.795 183.343 610.916 175.739 609.574 170.153L608.044 163.592L607.656 161.803C607.601 161.598 607.567 161.388 607.557 161.177C607.652 161.369 607.722 161.573 607.765 161.783C607.885 162.24 608.044 162.827 608.242 163.542C608.66 165.153 609.236 167.359 609.922 170.063C611.314 175.639 613.202 183.234 615.29 191.633C616.363 196.046 617.387 200.251 618.272 204.028C619.237 206.327 620.677 208.397 622.496 210.101C623.933 211.423 625.624 212.438 627.466 213.083C629.105 213.569 630.798 213.85 632.506 213.918Z" fill="#263238"/>
<path d="M535.422 214.535C534.768 214.717 534.104 214.864 533.434 214.972C530.302 215.75 527.552 217.622 525.681 220.25C525.335 220.826 524.96 221.383 524.557 221.92C524.699 221.248 524.977 220.612 525.373 220.051C526.249 218.638 527.414 217.425 528.792 216.493C530.16 215.547 531.716 214.906 533.354 214.614C534.03 214.438 534.735 214.411 535.422 214.535Z" fill="#263238"/>
<path d="M535.601 213.402C534.159 214.253 532.582 214.851 530.939 215.171C529.331 215.664 527.649 215.873 525.969 215.787C525.969 215.638 528.146 215.33 530.79 214.674C533.434 214.018 535.541 213.262 535.601 213.402Z" fill="#263238"/>
<path d="M532.49 158.185C532.957 157.539 533.573 157.121 533.941 156.634C534.309 156.147 535.134 155.918 535.531 156.396C535.929 156.873 535.531 157.718 535.014 158.234C536.635 158.304 537.857 156.097 539.418 156.535C539.656 156.642 539.871 156.796 540.05 156.986C540.229 157.177 540.369 157.401 540.462 157.646C540.554 157.89 540.597 158.151 540.588 158.412C540.58 158.674 540.52 158.931 540.412 159.169C539.911 160.112 539.12 160.868 538.156 161.326C537.195 161.775 536.331 162.407 535.611 163.185C535.273 163.622 535.054 164.288 535.422 164.705C536.038 165.421 537.499 164.576 538.046 165.342C538.424 165.858 537.977 166.554 537.539 167.021L532.857 172.15C532.482 172.64 531.985 173.024 531.416 173.264C531.129 173.37 530.812 173.365 530.529 173.249C530.245 173.133 530.016 172.915 529.885 172.638C529.841 172.339 529.892 172.034 530.031 171.766C530.17 171.499 530.391 171.282 530.661 171.147C531.209 170.896 531.738 170.604 532.241 170.272C532.484 170.096 532.648 169.833 532.7 169.538C532.752 169.243 532.688 168.939 532.52 168.691C532.003 168.145 531.108 168.602 530.532 169.059L525.055 173.363C524.685 173.717 524.223 173.962 523.723 174.069C523.472 174.111 523.214 174.054 523.004 173.912C522.793 173.77 522.645 173.552 522.589 173.304C522.594 173.037 522.677 172.778 522.828 172.558C523.83 170.818 525.205 169.32 526.854 168.174C527.509 167.792 528.099 167.309 528.603 166.743C528.85 166.455 529.001 166.097 529.033 165.718C529.065 165.34 528.977 164.961 528.782 164.636C527.703 165.642 526.517 166.525 525.243 167.27C524.786 167.538 524.14 167.747 523.802 167.349C523.464 166.952 523.802 166.355 524.16 165.898L529.826 159.268C530.237 158.64 530.881 158.201 531.615 158.046L532.49 158.185Z" fill="white"/>
<path d="M574.258 171.683C574.715 171.037 575.331 170.62 575.709 170.133C576.087 169.646 576.902 169.417 577.289 169.894C577.677 170.371 577.289 171.216 576.772 171.733C578.393 171.803 579.615 169.596 581.176 170.033C581.414 170.141 581.629 170.294 581.808 170.485C581.987 170.675 582.127 170.899 582.219 171.144C582.312 171.389 582.355 171.649 582.346 171.911C582.338 172.172 582.278 172.429 582.17 172.667C581.667 173.606 580.876 174.359 579.913 174.814C578.95 175.268 578.083 175.903 577.359 176.683C577.021 177.121 576.802 177.786 577.17 178.204C577.796 178.91 579.247 178.075 579.804 178.84C580.172 179.357 579.725 180.053 579.297 180.52L574.605 185.649C574.232 186.146 573.735 186.537 573.164 186.782C572.876 186.888 572.558 186.881 572.275 186.763C571.991 186.645 571.762 186.425 571.633 186.146C571.59 185.849 571.641 185.546 571.78 185.279C571.92 185.013 572.14 184.798 572.409 184.665C572.957 184.413 573.485 184.121 573.989 183.79C574.446 183.403 574.695 182.637 574.277 182.21C573.86 181.782 572.856 182.12 572.289 182.578L566.822 186.882C566.443 187.229 565.981 187.472 565.481 187.587C565.23 187.629 564.972 187.573 564.761 187.43C564.551 187.288 564.402 187.07 564.347 186.822C564.352 186.555 564.435 186.296 564.586 186.076C565.57 184.339 566.928 182.842 568.562 181.693C569.22 181.311 569.814 180.828 570.321 180.262C570.567 179.972 570.715 179.613 570.746 179.235C570.776 178.857 570.687 178.479 570.49 178.154C569.414 179.163 568.227 180.046 566.952 180.788C566.504 181.047 565.848 181.265 565.51 180.868C565.172 180.47 565.51 179.874 565.878 179.417C567.767 177.21 569.652 174.997 571.534 172.777C571.951 172.156 572.593 171.722 573.323 171.564L574.258 171.683Z" fill="white"/>
<path d="M558.344 211.255C558.811 210.609 559.427 210.191 559.795 209.704C560.163 209.217 560.988 208.998 561.385 209.465C561.783 209.933 561.385 210.797 560.868 211.304C562.489 211.374 563.711 209.167 565.272 209.605C565.51 209.712 565.725 209.865 565.904 210.056C566.083 210.247 566.223 210.471 566.315 210.715C566.408 210.96 566.451 211.221 566.442 211.482C566.434 211.743 566.374 212.001 566.266 212.239C565.765 213.181 564.974 213.938 564.009 214.396C563.049 214.845 562.185 215.476 561.465 216.254C561.127 216.692 560.908 217.358 561.276 217.775C561.892 218.491 563.353 217.646 563.9 218.411C564.278 218.928 563.83 219.624 563.393 220.091L558.711 225.22C558.336 225.71 557.839 226.094 557.27 226.334C556.983 226.44 556.666 226.435 556.383 226.319C556.099 226.203 555.87 225.985 555.739 225.707C555.695 225.409 555.746 225.104 555.885 224.836C556.024 224.568 556.245 224.351 556.515 224.216C557.066 223.972 557.595 223.68 558.095 223.342C558.338 223.166 558.502 222.903 558.554 222.608C558.606 222.313 558.541 222.009 558.373 221.761C557.857 221.215 556.962 221.672 556.385 222.129L550.908 226.433C550.538 226.787 550.077 227.032 549.577 227.139C549.326 227.18 549.068 227.124 548.857 226.982C548.647 226.84 548.498 226.622 548.443 226.373C548.448 226.107 548.531 225.847 548.682 225.628C549.672 223.894 551.029 222.398 552.658 221.244C553.317 220.868 553.908 220.384 554.407 219.813C554.654 219.525 554.805 219.166 554.837 218.788C554.869 218.41 554.781 218.031 554.586 217.706C553.51 218.715 552.323 219.599 551.048 220.34C550.59 220.608 549.944 220.827 549.606 220.419C549.268 220.012 549.606 219.425 549.964 218.978L555.63 212.338C556.042 211.71 556.685 211.271 557.419 211.115L558.344 211.255Z" fill="white"/>
<path d="M605.827 207.776C606.284 207.129 606.91 206.712 607.278 206.225C607.646 205.738 608.471 205.509 608.869 205.986C609.266 206.464 608.819 207.308 608.352 207.825C609.972 207.895 611.195 205.688 612.755 206.126C612.994 206.233 613.209 206.386 613.388 206.577C613.567 206.768 613.706 206.992 613.799 207.236C613.891 207.481 613.934 207.742 613.926 208.003C613.917 208.264 613.857 208.521 613.749 208.76C613.247 209.699 612.456 210.451 611.493 210.907C610.534 211.363 609.671 211.997 608.948 212.775C608.61 213.213 608.392 213.879 608.759 214.296C609.376 215.002 610.837 214.167 611.383 214.932C611.761 215.449 611.304 216.145 610.877 216.612L606.185 221.741C605.811 222.233 605.314 222.617 604.744 222.855C604.455 222.958 604.138 222.95 603.855 222.832C603.572 222.715 603.343 222.496 603.213 222.218C603.168 221.92 603.22 221.615 603.362 221.349C603.503 221.082 603.726 220.868 603.998 220.737C604.544 220.487 605.069 220.195 605.569 219.863C606.026 219.475 606.274 218.71 605.857 218.282C605.439 217.855 604.445 218.193 603.869 218.65L598.402 222.954C598.026 223.305 597.562 223.548 597.06 223.66C596.809 223.701 596.552 223.645 596.341 223.503C596.13 223.36 595.982 223.143 595.927 222.894C595.93 222.626 596.017 222.366 596.175 222.149C597.174 220.406 598.549 218.909 600.201 217.765C600.854 217.381 601.444 216.898 601.95 216.334C602.198 216.046 602.348 215.687 602.38 215.309C602.412 214.931 602.324 214.552 602.129 214.227C601.051 215.233 599.864 216.116 598.591 216.861C598.133 217.129 597.477 217.338 597.139 216.94C596.801 216.543 597.139 215.946 597.507 215.489L603.173 208.859C603.376 208.547 603.638 208.278 603.945 208.069C604.252 207.859 604.598 207.712 604.962 207.636L605.827 207.776Z" fill="white"/>
<path d="M587.696 213.094C587.589 212.971 587.498 212.834 587.428 212.686L586.732 211.463C586.136 210.41 585.301 208.849 584.317 206.911C582.329 203.034 579.735 197.587 577.18 191.454C574.625 185.321 572.598 179.636 571.216 175.491C570.54 173.413 570.023 171.733 569.685 170.521C569.536 169.984 569.417 169.527 569.317 169.169C569.262 169.012 569.228 168.848 569.218 168.682C569.303 168.825 569.37 168.979 569.417 169.139C569.536 169.497 569.695 169.934 569.884 170.461C570.301 171.684 570.878 173.334 571.564 175.332C572.995 179.437 575.073 185.083 577.617 191.236C580.162 197.388 582.697 202.816 584.575 206.722C585.5 208.631 586.265 210.191 586.842 211.354L587.448 212.616C587.554 212.762 587.638 212.923 587.696 213.094Z" fill="#263238"/>
<path d="M641.631 197.855C641.631 198.601 638.192 200.161 637.456 200.082L636.591 199.814C636.035 200.38 635.359 200.698 634.921 201.126C634.484 201.553 633.629 201.643 633.311 201.126C632.993 200.609 633.56 199.823 634.106 199.386C632.516 199.078 630.965 201.066 629.494 200.38C629.054 200.09 628.747 199.637 628.641 199.121C628.534 198.604 628.638 198.067 628.928 197.627C629.569 196.774 630.468 196.15 631.492 195.847C632.51 195.551 633.462 195.062 634.295 194.406C634.693 194.019 635.011 193.412 634.713 192.925C634.216 192.13 632.645 192.736 632.218 191.931C631.929 191.365 632.476 190.748 632.983 190.351C634.782 188.899 637.257 186.882 639.066 185.43C639.066 185.381 641.561 194.456 641.631 197.855Z" fill="white"/>
<g opacity="0.3">
<path d="M572.369 229.962C586.782 222.099 599.644 209.435 606.622 194.575L572.369 229.962Z" fill="black"/>
</g>
<g opacity="0.3">
<path d="M524.587 221.92C527.41 215.857 532.967 214.197 538.364 214.266C538.418 213.951 538.353 213.628 538.182 213.358C538.012 213.088 537.747 212.891 537.44 212.805C536.818 212.636 536.163 212.636 535.541 212.805C532.919 213.183 530.39 214.05 528.086 215.36C527.027 216.043 526.158 216.984 525.562 218.095C524.965 219.206 524.661 220.45 524.677 221.711" fill="black"/>
</g>
<g opacity="0.3">
<path d="M539.796 137.937C543.461 151.372 549.159 164.167 556.694 175.878C559.472 171.566 560.653 166.418 560.033 161.326C562.123 164.043 564.99 166.061 568.254 167.111C564.427 161.853 560.451 156.853 555.481 152.668C555.481 152.668 555.054 169.566 555.063 169.099C549.865 158.652 544.805 148.364 539.776 137.937" fill="black"/>
</g>
<path d="M583.591 91.0203C582.11 95.8412 580.003 99.5488 575.331 101.447C571.246 103.107 566.624 102.789 562.31 101.905C548.284 99.012 533.563 91.5372 526.118 79.3109L530.094 70.6433C534.299 64.0332 544.577 56.2005 556.505 60.0771C559.732 59.1543 563.14 59.0661 566.41 59.8206C569.68 60.5752 572.706 62.1478 575.202 64.391C584.347 72.174 583.591 91.0203 583.591 91.0203Z" fill="#263238"/>
<path d="M549.895 66.6769C541.704 65.6829 531.128 75.6229 530.452 83.8632C529.697 93.008 529.14 104.2 530.084 111.049C532.003 124.826 542.499 126.774 542.499 126.774L541.992 133.782L573.363 127.758L574.715 78.6248L574.884 74.1916L549.895 66.6769Z" fill="#FFBE9D"/>
<path d="M535.551 93.7837C535.538 94.2422 535.703 94.6878 536.013 95.0257C536.324 95.3636 536.753 95.5671 537.211 95.5928C537.436 95.6161 537.662 95.5941 537.878 95.5283C538.094 95.4625 538.294 95.3541 538.468 95.2096C538.641 95.0651 538.783 94.8873 538.887 94.6868C538.99 94.4863 539.053 94.2671 539.07 94.0422C539.084 93.5838 538.918 93.1381 538.608 92.8002C538.298 92.4623 537.868 92.2588 537.41 92.2331C537.186 92.2099 536.959 92.2318 536.743 92.2976C536.527 92.3635 536.327 92.4718 536.154 92.6163C535.98 92.7609 535.838 92.9386 535.734 93.1391C535.631 93.3396 535.569 93.5588 535.551 93.7837Z" fill="#263238"/>
<path d="M533.245 89.7578C533.454 89.9864 534.806 89.0321 536.704 89.0719C538.603 89.1117 539.974 90.0659 540.183 89.8572C540.392 89.6484 540.074 89.3403 539.477 88.8632C538.664 88.2822 537.693 87.9632 536.694 87.9487C535.708 87.929 534.741 88.2212 533.931 88.7837C533.344 89.2409 533.106 89.6484 533.245 89.7578Z" fill="#263238"/>
<path d="M553.244 94.4694C553.233 94.9271 553.4 95.3713 553.71 95.7087C554.019 96.0461 554.447 96.2503 554.904 96.2785C555.128 96.3003 555.354 96.2773 555.568 96.2108C555.783 96.1444 555.982 96.0357 556.154 95.8914C556.327 95.747 556.468 95.5697 556.571 95.3699C556.674 95.1701 556.736 94.9518 556.753 94.7278C556.767 94.2684 556.601 93.8216 556.292 93.4821C555.982 93.1426 555.552 92.937 555.093 92.9088C554.869 92.887 554.642 92.9103 554.427 92.9774C554.212 93.0445 554.012 93.154 553.84 93.2994C553.668 93.4448 553.526 93.6233 553.424 93.8242C553.322 94.0251 553.261 94.2445 553.244 94.4694Z" fill="#263238"/>
<path d="M551.863 90.4733C552.081 90.7019 553.433 89.7477 555.332 89.7874C557.23 89.8272 558.592 90.7814 558.801 90.5727C559.01 90.364 558.692 90.0558 558.095 89.5787C557.286 88.998 556.318 88.6789 555.322 88.6642C554.336 88.6425 553.368 88.9349 552.559 89.4992C551.992 89.9564 551.763 90.364 551.863 90.4733Z" fill="#263238"/>
<path d="M544.716 104.39C543.72 104.066 542.689 103.863 541.644 103.783C541.167 103.724 540.71 103.614 540.65 103.286C540.619 102.784 540.744 102.283 541.008 101.855C541.485 100.692 542.002 99.4692 542.509 98.1969C544.597 92.9883 546.117 88.7042 545.909 88.6247C545.7 88.5451 543.831 92.6901 541.744 97.8987C541.237 99.1809 540.75 100.414 540.303 101.586C539.982 102.16 539.879 102.831 540.014 103.475C540.079 103.649 540.184 103.806 540.32 103.932C540.457 104.058 540.621 104.15 540.8 104.201C541.065 104.277 541.339 104.321 541.615 104.33C542.642 104.482 543.684 104.502 544.716 104.39Z" fill="#263238"/>
<path d="M542.499 126.814C549.115 127.046 555.669 125.468 561.455 122.251C561.455 122.251 556.435 131.734 542.251 130.203L542.499 126.814Z" fill="#EB996E"/>
<path d="M545.432 108.982C545.799 108.533 546.275 108.186 546.814 107.974C547.354 107.761 547.938 107.691 548.513 107.769C548.93 107.813 549.333 107.942 549.699 108.147C550.065 108.352 550.385 108.629 550.64 108.962C550.887 109.284 551.03 109.673 551.05 110.078C551.069 110.483 550.965 110.885 550.749 111.228C550.439 111.563 550.035 111.796 549.59 111.899C549.146 112.002 548.68 111.969 548.255 111.805C547.363 111.475 546.548 110.968 545.859 110.314C545.651 110.158 545.473 109.966 545.332 109.747C545.261 109.643 545.223 109.52 545.223 109.394C545.223 109.269 545.261 109.146 545.332 109.042" fill="#EB996E"/>
<path d="M550.262 105.811C549.954 105.811 549.914 107.799 548.125 109.27C546.336 110.741 544.149 110.433 544.149 110.721C544.149 110.84 544.626 111.129 545.551 111.168C546.758 111.21 547.942 110.823 548.891 110.075C549.8 109.36 550.395 108.319 550.551 107.172C550.63 106.318 550.411 105.801 550.262 105.811Z" fill="#263238"/>
<path d="M551.525 83.0384C551.694 83.5553 553.592 83.3465 555.809 83.6547C558.025 83.9628 559.785 84.6487 560.123 84.1517C560.262 83.933 559.954 83.4459 559.238 82.929C558.285 82.2912 557.196 81.8861 556.057 81.7462C554.923 81.5876 553.768 81.7035 552.688 82.0841C551.863 82.4122 551.445 82.7899 551.525 83.0384Z" fill="#263238"/>
<path d="M534.1 84.281C534.418 84.7184 535.74 84.281 537.301 84.281C538.861 84.281 540.203 84.6289 540.511 84.1816C540.65 83.963 540.452 83.5355 539.875 83.1081C539.11 82.5919 538.203 82.3277 537.281 82.3527C536.36 82.3559 535.461 82.6402 534.706 83.1678C534.1 83.635 533.901 84.0723 534.1 84.281Z" fill="#263238"/>
<path d="M573.611 72.8198C572.508 70.5038 569.794 69.5496 567.389 68.6749C563.989 67.4423 560.689 65.9215 557.22 64.9076C553.77 63.7585 550.078 63.5357 546.515 64.2615C542.887 65.1362 539.746 67.3926 536.973 69.8875C533.315 73.1777 530.015 77.2133 529.08 82.0442V83.7041C536.963 81.4676 544.805 73.2274 550.511 67.3528C555.431 74.2114 563.622 86.3879 570.878 89.3699C571.365 85.8611 573.86 80.7718 574.138 77.2431C574.335 75.7479 574.154 74.2271 573.611 72.8198Z" fill="#263238"/>
<path d="M600.121 128.285C599.585 125.542 596.871 123.882 594.495 122.411C592.12 120.94 589.575 118.832 589.714 116.039C589.853 113.246 592.965 110.841 592.696 107.928C592.428 105.016 588.82 103.465 586.901 101.07C584.118 97.6105 583.581 95.4535 583.581 91.0202C583.581 82.3426 580.112 71.011 572.468 66.876L562.489 75.2554C565.391 83.3565 568.333 91.8254 567.319 100.384C566.713 105.453 564.725 110.383 565.013 115.483C565.322 120.96 568.214 125.949 569.198 131.337C570.133 136.446 569.327 141.704 569.586 146.893C569.844 152.082 571.574 157.688 575.967 160.441L592.557 152.489C594.356 151.624 596.384 150.501 596.642 148.513C596.901 146.525 595.142 144.776 594.654 142.788C593.462 137.589 601.135 133.514 600.121 128.285Z" fill="#263238"/>
<path d="M583.313 85.8813C582.525 86.2384 581.702 86.5116 580.858 86.6964C578.838 87.2649 576.767 87.6345 574.675 87.7998C572.571 87.9289 570.46 87.7004 568.433 87.1238C567.583 86.929 566.765 86.6109 566.007 86.1796C566.057 85.9708 569.794 87.6109 574.645 87.2829C576.708 87.1005 578.754 86.7683 580.768 86.2889C581.602 86.0741 582.454 85.9377 583.313 85.8813Z" fill="#455A64"/>
<path d="M583.631 89.0718C582.951 89.5896 582.197 90.0017 581.394 90.2944C579.488 91.0971 577.448 91.5354 575.381 91.5866C573.317 91.6042 571.261 91.323 569.278 90.7516C568.449 90.5641 567.648 90.2736 566.892 89.8869C567.728 89.9946 568.556 90.1641 569.367 90.3938C571.322 90.851 573.323 91.0778 575.331 91.0697C577.342 91.0122 579.332 90.6364 581.225 89.9564C582.011 89.6189 582.814 89.3236 583.631 89.0718Z" fill="#455A64"/>
<path d="M525.353 83.933C526.226 83.8086 527.105 83.7356 527.987 83.7144C528.853 83.5241 529.729 83.3847 530.611 83.2969C529.843 83.8008 528.969 84.1204 528.056 84.2307C527.144 84.3411 526.219 84.2392 525.353 83.933Z" fill="#455A64"/>
<path d="M524.856 85.5033C524.945 85.384 525.999 86.1096 527.46 86.6066C528.921 87.1036 530.194 87.1931 530.194 87.3521C529.224 87.5893 528.203 87.4984 527.291 87.0937C526.323 86.8525 525.466 86.2922 524.856 85.5033Z" fill="#455A64"/>
<path d="M571.325 153.771C571.078 153.736 570.837 153.665 570.61 153.562C569.933 153.278 569.326 152.851 568.83 152.31C568.038 151.45 567.519 150.374 567.339 149.219C567.23 148.49 567.285 147.747 567.498 147.042C567.748 146.27 568.099 145.534 568.542 144.855C569.02 144.133 569.449 143.379 569.824 142.599C570.187 141.75 570.38 140.838 570.391 139.915C570.319 137.851 569.705 135.842 568.612 134.09C567.363 132.152 566.009 130.284 564.556 128.494C562.958 126.528 561.857 124.206 561.345 121.725C560.968 119.223 561.117 116.67 561.783 114.23C562.391 111.983 563.172 109.786 564.119 107.66C564.974 105.622 565.809 103.684 566.435 101.845C567.039 100.134 567.462 98.3652 567.697 96.5665C568.105 93.9689 567.946 91.3137 567.23 88.7835C566.936 87.8666 566.525 86.9913 566.007 86.1792C566.185 86.3561 566.342 86.5529 566.474 86.7657C566.887 87.3844 567.221 88.0522 567.468 88.7537C568.267 91.3039 568.485 94.0007 568.105 96.646C567.889 98.4735 567.479 100.273 566.882 102.014C566.266 103.892 565.441 105.831 564.596 107.878C563.669 109.986 562.908 112.163 562.32 114.389C561.673 116.758 561.528 119.236 561.892 121.665C562.391 124.069 563.457 126.318 565.003 128.225C566.463 130.033 567.82 131.922 569.069 133.881C570.19 135.713 570.807 137.808 570.858 139.955C570.838 140.931 570.625 141.894 570.232 142.788C569.834 143.565 569.386 144.315 568.89 145.034C568.458 145.684 568.107 146.385 567.846 147.121C567.649 147.764 567.588 148.441 567.667 149.109C567.817 150.214 568.287 151.251 569.019 152.091C569.641 152.83 570.432 153.406 571.325 153.771Z" fill="#263238"/>
<path d="M557.032 59.9278C555.556 60.5936 554.209 61.5157 553.056 62.6514C552.024 63.894 551.217 65.3067 550.67 66.8262C550.612 66.3325 550.684 65.8324 550.879 65.375C551.247 64.2319 551.86 63.1823 552.673 62.2986C553.486 61.4149 554.482 60.7179 555.59 60.2559C556.034 60.0244 556.531 59.9114 557.032 59.9278Z" fill="#455A64"/>
<path d="M609.704 153.364L602.934 142.698L602.467 132.211L605.121 125.035C605.121 125.035 607.238 124.528 607.586 127.023C607.712 128.919 607.445 130.821 606.801 132.609L608.252 137.698C608.252 137.698 608.729 138.245 609.177 136.128C609.624 134.01 608.849 118.315 608.839 117.242C608.829 116.168 608.918 113.594 610.519 113.832C612.119 114.071 612.626 116.208 612.626 117.291C612.626 118.375 613.799 128.911 613.799 128.911C613.799 128.911 614.177 129.856 614.554 129.716C614.932 129.577 614.216 118.415 614.147 116.655C614.077 114.896 613.68 110.979 615.747 110.979C617.815 110.979 617.815 112.967 617.934 115.095C618.053 117.222 619.395 129.339 619.395 129.339C619.395 129.339 619.713 130.094 620.011 129.08C620.31 128.066 620.677 114.926 620.906 114.309C621.135 113.693 622.347 112.878 623.282 114.369C624.216 115.86 623.997 119.339 623.868 125.452C623.749 130.969 623.58 133.255 624.206 133.692C624.832 134.13 627.188 130.71 627.188 130.71C627.188 130.71 630.011 123.434 632.407 123.693C634.802 123.951 633.192 125.81 632.784 127.5C632.436 128.931 628.252 137.44 628.162 137.549C628.073 137.658 623.958 152.817 623.958 152.817L633.043 170.182C634.651 173.202 635.267 176.653 634.802 180.043C634.255 183.75 632.357 187.885 626.92 189.575C622.944 190.828 619.962 189.038 617.974 186.931C616.291 185.063 615.177 182.752 614.763 180.271C613.6 173.572 609.684 153.344 609.684 153.344L609.704 153.364Z" fill="#FFBE9D"/>
<path d="M616.463 145.71C616.373 145.71 616.463 144.895 616.244 143.662C615.949 142.053 615.181 140.568 614.038 139.398C613.134 138.445 611.93 137.831 610.628 137.659C609.815 137.562 608.994 137.748 608.302 138.185L608.203 138.245V138.156C608.074 137.877 608.014 137.718 608.044 137.708C608.074 137.698 608.173 137.808 608.362 138.066H608.223C608.561 137.775 608.954 137.554 609.38 137.418C609.805 137.281 610.253 137.231 610.698 137.271C612.125 137.382 613.461 138.02 614.445 139.06C615.667 140.298 616.443 141.906 616.652 143.633C616.764 144.33 616.699 145.044 616.463 145.71Z" fill="#EB996E"/>
<path d="M622.178 137.649C622.268 137.778 621.353 138.563 620.459 139.726C619.976 140.485 619.445 141.212 618.868 141.903C619.076 140.995 619.479 140.144 620.051 139.409C620.623 138.674 621.349 138.073 622.178 137.649Z" fill="#EB996E"/>
<path d="M530.333 232.605C530.459 237.036 532.182 241.272 535.183 244.533C537.409 246.946 539.758 249.242 542.221 251.412L559.338 259.086C559.338 259.086 563.801 259.762 568.284 255.398C569.719 254.143 570.9 252.625 571.763 250.925C571.763 250.925 576.892 253.221 578.9 253.132C582.279 252.982 581.742 250.597 581.742 250.597C581.742 250.597 570.441 244.374 567.757 241.969C565.073 239.563 557.34 237.993 551.853 238.699L548.672 238.072L547.519 233.798C547.519 233.798 541.316 224.564 535.591 227.834C529.865 231.104 530.333 232.605 530.333 232.605Z" fill="#FFBE9D"/>
</g>
</svg>
