<svg width="15" height="15" viewBox="0 0 15 15" fill="none" xmlns="http://www.w3.org/2000/svg">
<path fill-rule="evenodd" clip-rule="evenodd" d="M6.77776 2C4.13907 2 2 4.13907 2 6.77776C2 9.41644 4.13907 11.5555 6.77776 11.5555C8.05827 11.5555 9.22112 11.0518 10.079 10.2316C10.1013 10.2038 10.1254 10.177 10.1512 10.1512C10.177 10.1254 10.2039 10.1013 10.2317 10.0789C11.0518 9.22108 11.5555 8.05824 11.5555 6.77776C11.5555 4.13907 9.41644 2 6.77776 2ZM12.2253 10.8111C13.0611 9.68406 13.5555 8.28864 13.5555 6.77776C13.5555 3.0345 10.521 0 6.77776 0C3.0345 0 0 3.0345 0 6.77776C0 10.521 3.0345 13.5555 6.77776 13.5555C8.28867 13.5555 9.68411 13.0611 10.8111 12.2253L13.2929 14.707C13.6834 15.0976 14.3166 15.0976 14.7071 14.707C15.0976 14.3165 15.0976 13.6834 14.7071 13.2928L12.2253 10.8111Z" fill="#FCFCFC"/>
</svg>
