<svg width="36" height="36" viewBox="0 0 36 36" fill="none" xmlns="http://www.w3.org/2000/svg">
<mask id="mask0_504_2" style="mask-type:alpha" maskUnits="userSpaceOnUse" x="0" y="0" width="36" height="36">
<path d="M18.8413 16.5827H35.0838V17.4222C35.0838 19.8378 34.734 22.0913 34.0343 24.1827C33.3346 26.2742 32.3018 28.1595 30.9357 29.8386C29.5697 31.4882 27.7705 32.799 25.5382 33.7711C23.3059 34.7138 20.7738 35.1851 17.9417 35.1851C14.41 35.1851 11.2448 34.375 8.44611 32.7548C5.68071 31.1052 3.58168 28.9696 2.14901 26.3479C0.716336 23.7261 0 20.8688 0 17.7757C0 12.8563 1.69922 8.68811 5.09765 5.27105C8.49608 1.82453 12.9274 0.101265 18.3915 0.101265C21.6234 0.101265 24.5553 0.793515 27.1875 2.17801C29.8196 3.56252 31.852 5.52144 33.2846 8.05478L26.7876 11.1478C26.0213 9.58656 24.8719 8.31989 23.3392 7.3478C21.8066 6.34624 20.0907 5.84547 18.1916 5.84547C14.8931 5.84547 12.2943 7.06795 10.3952 9.51292C8.5294 11.9579 7.5965 14.7122 7.5965 17.7757C7.5965 19.6905 7.97965 21.5168 8.74597 23.2548C9.51228 24.9928 10.7284 26.4657 12.3943 27.6734C14.0602 28.8517 16.0093 29.4409 18.2416 29.4409C20.5072 29.4409 22.4896 28.6897 24.1888 27.1874C25.8881 25.6851 26.771 23.9176 26.8376 21.885H18.8413V16.5827Z" fill="black"/>
</mask>
<g mask="url(#mask0_504_2)">
<circle cx="17.5419" cy="17.6432" r="17.5419" fill="url(#paint0_linear_504_2)"/>
<mask id="mask1_504_2" style="mask-type:alpha" maskUnits="userSpaceOnUse" x="0" y="0" width="36" height="36">
<circle cx="17.5419" cy="17.6432" r="17.5419" fill="url(#paint1_linear_504_2)"/>
</mask>
<g mask="url(#mask1_504_2)">
<rect x="-2.97842e-06" y="16.3438" width="18.1916" height="19.491" fill="white"/>
<rect x="18.1916" y="16.3438" width="17.5419" height="19.491" fill="#21212A"/>
</g>
</g>
<defs>
<linearGradient id="paint0_linear_504_2" x1="0" y1="0.101265" x2="31.9629" y2="42.1803" gradientUnits="userSpaceOnUse">
<stop stop-color="#FEDE0D"/>
<stop offset="1" stop-color="#F6B801"/>
</linearGradient>
<linearGradient id="paint1_linear_504_2" x1="0" y1="0.101265" x2="31.9629" y2="42.1803" gradientUnits="userSpaceOnUse">
<stop stop-color="#FEDE0D"/>
<stop offset="1" stop-color="#F6B801"/>
</linearGradient>
</defs>
</svg>
