<svg width="302" height="188" viewBox="0 0 302 188" fill="none" xmlns="http://www.w3.org/2000/svg">
<g filter="url(#filter0_d_284_9)">
<mask id="mask0_284_9" style="mask-type:alpha" maskUnits="userSpaceOnUse" x="8" y="2" width="80" height="80">
<path d="M50.6643 39.1147H87.2409V41.0053C87.2409 46.4448 86.4531 51.5194 84.8775 56.2293C83.3019 60.9391 80.976 65.1845 77.8998 68.9657C74.8236 72.6805 70.7721 75.6324 65.7451 77.8214C60.7182 79.9442 55.016 81.0056 48.6385 81.0056C40.6854 81.0056 33.5577 79.1813 27.2552 75.5329C21.0278 71.8181 16.301 67.0088 13.0748 61.1049C9.84851 55.2011 8.23539 48.7665 8.23539 41.8013C8.23539 30.7233 12.0619 21.3368 19.7148 13.6419C27.3678 5.88063 37.3466 2 49.6514 2C56.9292 2 63.5318 3.55888 69.4591 6.67665C75.3864 9.79442 79.9631 14.2057 83.1894 19.9106L68.5587 26.8758C66.833 23.36 64.2445 20.5076 60.7932 18.3185C57.3419 16.0631 53.4779 14.9354 49.2012 14.9354C41.7734 14.9354 35.9211 17.6883 31.6444 23.1942C27.4428 28.7 25.342 34.9024 25.342 41.8013C25.342 46.1131 26.2048 50.2259 27.9305 54.1397C29.6562 58.0535 32.3947 61.3703 36.1462 64.09C39.8976 66.7434 44.2868 68.0701 49.3138 68.0701C54.4157 68.0701 58.88 66.3786 62.7065 62.9955C66.5329 59.6124 68.5212 55.6322 68.6713 51.0551H50.6643V39.1147Z" fill="black"/>
</mask>
<g mask="url(#mask0_284_9)">
<circle cx="47.7382" cy="41.5028" r="39.5028" fill="url(#paint0_linear_284_9)"/>
<mask id="mask1_284_9" style="mask-type:alpha" maskUnits="userSpaceOnUse" x="8" y="2" width="80" height="80">
<circle cx="47.7382" cy="41.5028" r="39.5028" fill="url(#paint1_linear_284_9)"/>
</mask>
<g mask="url(#mask1_284_9)">
<rect x="8.23539" y="38.5757" width="40.9658" height="43.892" fill="white"/>
<rect x="49.2012" y="38.5757" width="39.5028" height="43.892" fill="#777777"/>
</g>
</g>
</g>
<path d="M302 2V81.0627H288.947V2H302Z" fill="white"/>
<path d="M279.467 35.0943V80.8724H266.6V76.6768H266.414C263.492 80.4683 259.359 82.3641 254.014 82.3641C247.611 82.3641 242.484 79.9089 238.63 74.9986C234.838 70.0882 232.943 64.3388 232.943 57.7502C232.943 51.286 234.838 45.6608 238.63 40.8748C242.484 36.0266 247.549 33.6025 253.827 33.6025C259.048 33.6025 263.306 35.5294 266.6 39.3831V35.0943H279.467ZM249.165 66.8872C251.217 69.4978 253.827 70.8031 256.997 70.8031C260.167 70.8031 262.778 69.4978 264.829 66.8872C266.88 64.2145 267.905 61.231 267.905 57.9367C267.905 54.6424 266.88 51.69 264.829 49.0794C262.778 46.4689 260.167 45.1636 256.997 45.1636C253.827 45.1636 251.217 46.4689 249.165 49.0794C247.176 51.69 246.182 54.6424 246.182 57.9367C246.182 61.231 247.176 64.2145 249.165 66.8872Z" fill="white"/>
<path d="M176.845 81.0627V2H189.898V39.4802C193.068 35.6887 197.294 33.7929 202.577 33.7929C208.793 33.7929 213.828 36.2481 217.681 41.1584C221.535 46.0066 223.462 51.6007 223.462 57.9406C223.462 64.5913 221.535 70.3719 217.681 75.2822C213.89 80.1304 208.762 82.5545 202.298 82.5545C199.874 82.5545 197.543 82.0572 195.305 81.0627C193.068 80.0061 191.327 78.5765 190.084 76.774H189.898V81.0627H176.845ZM191.576 67.0776C193.627 69.6881 196.237 70.9934 199.407 70.9934C202.577 70.9934 205.157 69.6881 207.146 67.0776C209.197 64.4049 210.223 61.4214 210.223 58.1271C210.223 54.8328 209.197 51.8804 207.146 49.2698C205.157 46.6593 202.577 45.354 199.407 45.354C196.237 45.354 193.627 46.6593 191.576 49.2698C189.587 51.8804 188.592 54.8328 188.592 58.1271C188.592 61.4214 189.587 64.4049 191.576 67.0776Z" fill="white"/>
<path d="M125.968 40.5019C130.443 35.9023 136.224 33.6025 143.31 33.6025C150.395 33.6025 156.176 35.9023 160.651 40.5019C165.126 45.0393 167.364 50.882 167.364 58.0299C167.364 65.1779 165.126 71.0206 160.651 75.558C156.238 80.0954 150.458 82.3641 143.31 82.3641C136.162 82.3641 130.35 80.0954 125.875 75.558C121.462 71.0206 119.255 65.1779 119.255 58.0299C119.255 50.882 121.493 45.0393 125.968 40.5019ZM151.141 49.0794C149.152 46.4689 146.542 45.1636 143.31 45.1636C140.077 45.1636 137.467 46.4689 135.478 49.0794C133.489 51.69 132.494 54.6735 132.494 58.0299C132.494 61.3242 133.489 64.2766 135.478 66.8872C137.529 69.4978 140.14 70.8031 143.31 70.8031C146.48 70.8031 149.059 69.4978 151.048 66.8872C153.099 64.2766 154.125 61.3242 154.125 58.0299C154.125 54.6735 153.13 51.69 151.141 49.0794Z" fill="white"/>
<path d="M109.774 2V81.0627H96.7216V2H109.774Z" fill="white"/>
<path d="M240.049 103.724L272.511 103.574C280.297 103.575 287.764 106.668 293.27 112.174C298.775 117.679 301.869 125.146 301.869 132.932V158.236C301.869 162.091 301.11 165.908 299.635 169.47C298.159 173.032 295.997 176.268 293.27 178.994C290.544 181.72 287.308 183.882 283.746 185.357C280.184 186.832 276.366 187.591 272.511 187.591H240.236C236.381 187.591 232.564 186.832 229.002 185.357C225.44 183.882 222.204 181.72 219.478 178.994C216.752 176.268 214.59 173.031 213.115 169.47C211.64 165.908 210.881 162.091 210.881 158.236V132.932C210.881 116.715 223.835 103.724 240.049 103.724Z" fill="white"/>
<path d="M247.933 151.077V149.651H239.342V143.304H256.089V150.854C256.089 162.737 250.415 169.642 239.676 169.642C228.607 169.642 222.174 160.919 222.174 145.541C222.174 130.545 229.194 121.364 242.066 121.364C246.932 121.364 251.125 122.652 253.417 124.329V130.863C250.124 128.823 246.332 127.729 242.458 127.702C234.014 127.702 230.437 133.434 230.437 145.541C230.437 157.284 233.399 163.291 239.829 163.291C245.974 163.322 247.933 158.569 247.933 151.077ZM290.825 151.971C290.825 163.38 284.673 169.669 275.829 169.669C266.984 169.669 260.833 163.38 260.833 152.057C260.833 140.647 266.981 134.358 275.829 134.358C284.676 134.358 290.825 140.62 290.825 151.971ZM282.522 151.971C282.522 144.142 280.285 140.705 275.841 140.705C271.397 140.705 269.157 144.142 269.157 152.057C269.157 159.885 271.394 163.325 275.841 163.325C280.288 163.325 282.522 159.857 282.522 151.971Z" fill="#21212A"/>
<path d="M30.0387 128.402H26.3662C19.6945 128.402 16.1812 131.784 16.1812 136.791C16.1812 142.465 18.6112 145.094 23.618 148.476L27.7281 151.245L15.8446 168.996H7L17.6533 153.115C11.5018 148.73 8.06196 144.479 8.06196 137.238C8.06196 128.179 14.345 122.055 26.2805 122.055H38.161V168.999H30.0111V128.402H30.0387ZM71.755 135.028V168.999H63.7306V154.823H52.9917V168.999H44.9673V135.028H52.9917V148.476H63.7306V135.028H71.755ZM108.018 176.745H100.581V168.971H82.546V176.745H75.1092V162.639H77.6248C80.4496 156.965 81.0097 146.226 81.0097 137.923V135.016H104.437V162.639H108.018V176.745ZM96.4126 141.375H87.9139V142.382C87.9139 148.252 87.3018 157.507 85.0616 162.651H96.4126V141.375ZM126.05 169.641C115.791 169.641 109.973 163.909 109.973 152.084C109.973 141.822 114.643 134.334 124.431 134.334C132.455 134.334 137.655 138.805 137.655 150.606V154.853H118.279C118.613 160.531 120.85 163.297 126.723 163.297C130.637 163.297 134.83 161.816 137.318 160.111V166.679C134.971 168.301 131.194 169.641 126.05 169.641ZM118.279 148.925H129.489V148.255C129.489 144.007 128.265 140.708 124.287 140.708C120.458 140.678 118.503 143.527 118.279 148.925ZM151.102 152.307V168.999H143.05V135.028H151.102V150.685L162.468 135.028H170.578L159.227 150.685L172.115 168.971H162.986L151.102 152.307ZM171.653 152.029C171.653 141.682 176.993 134.33 187.261 134.33C191.239 134.33 194.223 135.001 195.9 135.952V142.774C194.278 141.767 191.23 140.678 188.127 140.678C182.869 140.678 179.962 144.451 179.962 151.833C179.962 158.85 182.339 163.325 188.072 163.325C191.453 163.325 193.886 162.456 195.9 161.029V167.573C193.941 168.999 191.31 169.669 187.594 169.669C176.852 169.641 171.65 163.38 171.65 152.029H171.653Z" fill="white"/>
<path d="M197.938 113.88C196.92 113.88 196.023 113.638 195.247 113.153C194.472 112.669 193.858 112.038 193.405 111.263V118.8H190.74V100.963H193.09V103.241C193.575 102.482 194.205 101.876 194.981 101.423C195.756 100.971 196.621 100.745 197.574 100.745C198.447 100.745 199.246 100.922 199.973 101.278C200.7 101.617 201.331 102.094 201.864 102.708C202.397 103.322 202.809 104.025 203.1 104.816C203.407 105.592 203.56 106.416 203.56 107.288C203.56 108.5 203.318 109.607 202.833 110.609C202.365 111.61 201.702 112.41 200.846 113.008C200.006 113.59 199.036 113.88 197.938 113.88ZM197.065 111.602C197.631 111.602 198.14 111.481 198.592 111.239C199.06 110.996 199.456 110.673 199.779 110.269C200.119 109.865 200.377 109.405 200.555 108.888C200.733 108.371 200.822 107.838 200.822 107.288C200.822 106.707 200.725 106.157 200.531 105.64C200.337 105.123 200.054 104.671 199.683 104.283C199.327 103.895 198.907 103.588 198.422 103.362C197.954 103.136 197.437 103.023 196.871 103.023C196.532 103.023 196.176 103.087 195.805 103.217C195.433 103.346 195.086 103.524 194.763 103.75C194.44 103.976 194.157 104.243 193.914 104.55C193.672 104.857 193.502 105.18 193.405 105.519V108.839C193.632 109.356 193.931 109.825 194.302 110.245C194.674 110.649 195.102 110.98 195.587 111.239C196.071 111.481 196.564 111.602 197.065 111.602Z" fill="white"/>
<path d="M182.07 113.88C181.084 113.88 180.188 113.711 179.38 113.371C178.588 113.016 177.901 112.539 177.32 111.942C176.738 111.328 176.286 110.633 175.962 109.857C175.655 109.066 175.502 108.225 175.502 107.337C175.502 106.141 175.777 105.051 176.326 104.065C176.875 103.063 177.643 102.263 178.628 101.666C179.614 101.052 180.769 100.745 182.094 100.745C183.419 100.745 184.558 101.052 185.511 101.666C186.481 102.263 187.232 103.055 187.765 104.041C188.298 105.026 188.565 106.085 188.565 107.216C188.565 107.409 188.557 107.595 188.541 107.773C188.525 107.935 188.508 108.072 188.492 108.185H178.338C178.386 108.928 178.588 109.583 178.943 110.148C179.315 110.697 179.784 111.134 180.349 111.457C180.915 111.764 181.52 111.917 182.167 111.917C182.878 111.917 183.548 111.74 184.178 111.384C184.825 111.029 185.261 110.56 185.487 109.978L187.765 110.633C187.491 111.247 187.07 111.804 186.505 112.305C185.956 112.79 185.301 113.178 184.542 113.468C183.782 113.743 182.958 113.88 182.07 113.88ZM178.265 106.416H185.923C185.875 105.689 185.665 105.051 185.293 104.501C184.938 103.936 184.477 103.499 183.912 103.192C183.362 102.869 182.748 102.708 182.07 102.708C181.407 102.708 180.793 102.869 180.228 103.192C179.679 103.499 179.226 103.936 178.871 104.501C178.515 105.051 178.313 105.689 178.265 106.416Z" fill="white"/>
<path d="M161.889 113.638V100.962H164.555V106.003H170.444V100.962H173.11V113.638H170.444V108.306H164.555V113.638H161.889Z" fill="white"/>
<path d="M153.013 113.638V103.313H148.82V100.962H159.896V103.313H155.679V113.638H153.013Z" fill="white"/>
<path d="M141.987 113.88C140.969 113.88 140.073 113.638 139.297 113.153C138.521 112.669 137.907 112.038 137.455 111.263V118.8H134.789V100.963H137.14V103.241C137.625 102.482 138.255 101.876 139.03 101.423C139.806 100.971 140.67 100.745 141.624 100.745C142.496 100.745 143.296 100.922 144.023 101.278C144.75 101.617 145.38 102.094 145.913 102.708C146.447 103.322 146.859 104.025 147.149 104.816C147.456 105.592 147.61 106.416 147.61 107.288C147.61 108.5 147.368 109.607 146.883 110.609C146.414 111.61 145.752 112.41 144.895 113.008C144.055 113.59 143.086 113.88 141.987 113.88ZM141.115 111.602C141.68 111.602 142.189 111.481 142.642 111.239C143.11 110.996 143.506 110.673 143.829 110.269C144.168 109.865 144.427 109.405 144.605 108.888C144.782 108.371 144.871 107.838 144.871 107.288C144.871 106.707 144.774 106.157 144.58 105.64C144.387 105.123 144.104 104.671 143.732 104.283C143.377 103.895 142.957 103.588 142.472 103.362C142.003 103.136 141.486 103.023 140.921 103.023C140.582 103.023 140.226 103.087 139.854 103.217C139.483 103.346 139.135 103.524 138.812 103.75C138.489 103.976 138.206 104.243 137.964 104.55C137.722 104.857 137.552 105.18 137.455 105.519V108.839C137.681 109.356 137.98 109.825 138.352 110.245C138.723 110.649 139.152 110.98 139.636 111.239C140.121 111.481 140.614 111.602 141.115 111.602Z" fill="white"/>
<path d="M120.188 109.93C120.188 109.122 120.414 108.419 120.867 107.821C121.335 107.207 121.974 106.739 122.782 106.416C123.589 106.076 124.526 105.907 125.593 105.907C126.158 105.907 126.732 105.947 127.314 106.028C127.911 106.109 128.437 106.238 128.889 106.416V105.616C128.889 104.727 128.622 104.033 128.089 103.532C127.556 103.031 126.788 102.78 125.787 102.78C125.076 102.78 124.405 102.91 123.775 103.168C123.145 103.411 122.475 103.758 121.764 104.21L120.867 102.417C121.707 101.851 122.547 101.431 123.387 101.157C124.244 100.882 125.14 100.745 126.078 100.745C127.774 100.745 129.107 101.197 130.076 102.102C131.062 102.99 131.555 104.259 131.555 105.907V110.633C131.555 110.94 131.603 111.158 131.7 111.287C131.813 111.416 131.999 111.489 132.258 111.505V113.638C132.015 113.687 131.797 113.719 131.603 113.735C131.409 113.751 131.248 113.759 131.119 113.759C130.553 113.759 130.125 113.622 129.834 113.347C129.543 113.073 129.374 112.749 129.325 112.378L129.252 111.651C128.703 112.362 128 112.911 127.144 113.299C126.288 113.687 125.423 113.88 124.551 113.88C123.711 113.88 122.959 113.711 122.297 113.371C121.634 113.016 121.117 112.539 120.746 111.942C120.374 111.344 120.188 110.673 120.188 109.93ZM128.259 110.706C128.453 110.495 128.606 110.285 128.719 110.075C128.832 109.865 128.889 109.68 128.889 109.518V108.064C128.437 107.886 127.96 107.757 127.459 107.676C126.958 107.579 126.465 107.531 125.981 107.531C125.011 107.531 124.22 107.725 123.606 108.112C123.008 108.5 122.709 109.033 122.709 109.712C122.709 110.083 122.806 110.439 123 110.778C123.21 111.118 123.501 111.392 123.872 111.602C124.26 111.812 124.737 111.917 125.302 111.917C125.884 111.917 126.441 111.804 126.974 111.578C127.507 111.352 127.936 111.061 128.259 110.706Z" fill="white"/>
<path d="M106.98 113.638V100.962H117.886V113.638H115.22V103.313H109.646V113.638H106.98Z" fill="white"/>
<defs>
<filter id="filter0_d_284_9" x="0.23539" y="0" width="89.0055" height="89.0054" filterUnits="userSpaceOnUse" color-interpolation-filters="sRGB">
<feFlood flood-opacity="0" result="BackgroundImageFix"/>
<feColorMatrix in="SourceAlpha" type="matrix" values="0 0 0 0 0 0 0 0 0 0 0 0 0 0 0 0 0 0 127 0" result="hardAlpha"/>
<feOffset dx="-3" dy="3"/>
<feGaussianBlur stdDeviation="2.5"/>
<feComposite in2="hardAlpha" operator="out"/>
<feColorMatrix type="matrix" values="0 0 0 0 0 0 0 0 0 0 0 0 0 0 0 0 0 0 0.11 0"/>
<feBlend mode="normal" in2="BackgroundImageFix" result="effect1_dropShadow_284_9"/>
<feBlend mode="normal" in="SourceGraphic" in2="effect1_dropShadow_284_9" result="shape"/>
</filter>
<linearGradient id="paint0_linear_284_9" x1="8.23539" y1="2" x2="80.2128" y2="96.7582" gradientUnits="userSpaceOnUse">
<stop stop-color="#FEDE0D"/>
<stop offset="1" stop-color="#F6B801"/>
</linearGradient>
<linearGradient id="paint1_linear_284_9" x1="8.23539" y1="2" x2="80.2128" y2="96.7582" gradientUnits="userSpaceOnUse">
<stop stop-color="#FEDE0D"/>
<stop offset="1" stop-color="#F6B801"/>
</linearGradient>
</defs>
</svg>
