<svg width="139" height="85" viewBox="0 0 139 85" fill="none" xmlns="http://www.w3.org/2000/svg">
<g filter="url(#filter0_d_253_2)">
<mask id="mask0_253_2" style="mask-type:alpha" maskUnits="userSpaceOnUse" x="8" y="2" width="36" height="36">
<path d="M27.3899 18.4814H43.6324V19.3209C43.6324 21.7365 43.2826 23.99 42.5829 26.0814C41.8832 28.1729 40.8504 30.0582 39.4843 31.7373C38.1183 33.3869 36.3191 34.6977 34.0868 35.6698C31.8545 36.6125 29.3224 37.0838 26.4903 37.0838C22.9586 37.0838 19.7934 36.2737 16.9947 34.6535C14.2293 33.0039 12.1303 30.8683 10.6976 28.2466C9.26494 25.6248 8.5486 22.7675 8.5486 19.6744C8.5486 14.755 10.2478 10.5868 13.6462 7.16975C17.0447 3.72323 21.476 1.99997 26.9401 1.99997C30.172 1.99997 33.1039 2.69222 35.7361 4.07672C38.3682 5.46122 40.4006 7.42014 41.8332 9.95348L35.3362 13.0465C34.5699 11.4853 33.4205 10.2186 31.8878 9.2465C30.3552 8.24495 28.6393 7.74417 26.7402 7.74417C23.4417 7.74417 20.8429 8.96666 18.9438 11.4116C17.078 13.8566 16.1451 16.6109 16.1451 19.6744C16.1451 21.5892 16.5283 23.4155 17.2946 25.1535C18.0609 26.8915 19.277 28.3644 20.9429 29.5721C22.6088 30.7504 24.5579 31.3396 26.7902 31.3396C29.0558 31.3396 31.0382 30.5884 32.7374 29.0861C34.4367 27.5838 35.3196 25.8163 35.3862 23.7838H27.3899V18.4814Z" fill="black"/>
</mask>
<g mask="url(#mask0_253_2)">
<circle cx="26.0905" cy="19.5419" r="17.5419" fill="url(#paint0_linear_253_2)"/>
<mask id="mask1_253_2" style="mask-type:alpha" maskUnits="userSpaceOnUse" x="8" y="2" width="36" height="36">
<circle cx="26.0905" cy="19.5419" r="17.5419" fill="url(#paint1_linear_253_2)"/>
</mask>
<g mask="url(#mask1_253_2)">
<rect x="8.5486" y="18.2425" width="18.1916" height="19.491" fill="white"/>
<rect x="26.7402" y="18.2425" width="17.5419" height="19.491" fill="#21212A"/>
</g>
</g>
</g>
<path d="M139 1.99997V37.1092H133.204V1.99997H139Z" fill="#21212A"/>
<path d="M128.994 16.6959V37.0245H123.28V35.1614H123.197C121.9 36.8451 120.064 37.6869 117.691 37.6869C114.848 37.6869 112.571 36.5967 110.859 34.4161C109.176 32.2356 108.334 29.6825 108.334 26.7567C108.334 23.8861 109.176 21.3882 110.859 19.2629C112.571 17.11 114.82 16.0335 117.608 16.0335C119.926 16.0335 121.817 16.8891 123.28 18.6004V16.6959H128.994ZM115.538 30.8141C116.449 31.9734 117.608 32.553 119.016 32.553C120.423 32.553 121.583 31.9734 122.493 30.8141C123.404 29.6273 123.86 28.3024 123.86 26.8395C123.86 25.3766 123.404 24.0656 122.493 22.9063C121.583 21.747 120.423 21.1674 119.016 21.1674C117.608 21.1674 116.449 21.747 115.538 22.9063C114.655 24.0656 114.213 25.3766 114.213 26.8395C114.213 28.3024 114.655 29.6273 115.538 30.8141Z" fill="#21212A"/>
<path d="M83.4226 37.1092V1.99997H89.2189V18.6437C90.6266 16.96 92.5035 16.1182 94.8496 16.1182C97.6098 16.1182 99.8455 17.2084 101.557 19.389C103.268 21.5419 104.124 24.026 104.124 26.8414C104.124 29.7948 103.268 32.3617 101.557 34.5422C99.8731 36.6952 97.596 37.7716 94.7254 37.7716C93.649 37.7716 92.6139 37.5508 91.6202 37.1092C90.6266 36.64 89.8537 36.0051 89.3017 35.2047H89.2189V37.1092H83.4226ZM89.9641 30.8988C90.875 32.0581 92.0343 32.6377 93.442 32.6377C94.8496 32.6377 95.9951 32.0581 96.8783 30.8988C97.7892 29.712 98.2446 28.3871 98.2446 26.9242C98.2446 25.4613 97.7892 24.1502 96.8783 22.991C95.9951 21.8317 94.8496 21.2521 93.442 21.2521C92.0343 21.2521 90.875 21.8317 89.9641 22.991C89.0809 24.1502 88.6393 25.4613 88.6393 26.9242C88.6393 28.3871 89.0809 29.712 89.9641 30.8988Z" fill="#21212A"/>
<path d="M60.8299 19.0973C62.8172 17.0548 65.3841 16.0335 68.5307 16.0335C71.6773 16.0335 74.2442 17.0548 76.2315 19.0973C78.2189 21.1122 79.2125 23.7067 79.2125 26.8809C79.2125 30.0551 78.2189 32.6496 76.2315 34.6646C74.2718 36.6795 71.7049 37.6869 68.5307 37.6869C65.3565 37.6869 62.7758 36.6795 60.7885 34.6646C58.8287 32.6496 57.8489 30.0551 57.8489 26.8809C57.8489 23.7067 58.8425 21.1122 60.8299 19.0973ZM72.0085 22.9063C71.1253 21.747 69.966 21.1674 68.5307 21.1674C67.0954 21.1674 65.9362 21.747 65.0529 22.9063C64.1697 24.0656 63.728 25.3904 63.728 26.8809C63.728 28.3438 64.1697 29.6549 65.0529 30.8141C65.9638 31.9734 67.123 32.553 68.5307 32.553C69.9384 32.553 71.0839 31.9734 71.9671 30.8141C72.878 29.6549 73.3334 28.3438 73.3334 26.8809C73.3334 25.3904 72.8918 24.0656 72.0085 22.9063Z" fill="#21212A"/>
<path d="M53.6388 1.99997V37.1092H47.8425V1.99997H53.6388Z" fill="#21212A"/>
<path d="M111.49 47.1723L125.905 47.1057C129.362 47.1061 132.678 48.4797 135.123 50.9246C137.568 53.3694 138.942 56.6853 138.942 60.1428V71.3792C138.942 73.0912 138.605 74.7865 137.95 76.3681C137.294 77.9498 136.334 79.3869 135.123 80.5974C133.913 81.8079 132.476 82.7681 130.894 83.4231C129.312 84.0781 127.617 84.4152 125.905 84.415H111.573C109.861 84.4151 108.166 84.078 106.584 83.423C105.002 82.768 103.565 81.8078 102.355 80.5974C101.144 79.3868 100.184 77.9497 99.5289 76.368C98.8739 74.7864 98.5368 73.0912 98.5369 71.3792V60.1428C98.5369 52.9414 104.29 47.1723 111.49 47.1723Z" fill="#21212A"/>
<path d="M114.991 68.2005V67.5672H111.176V64.7486H118.612V68.1013C118.612 73.3784 116.093 76.4443 111.324 76.4443C106.408 76.4443 103.552 72.5711 103.552 65.742C103.552 59.0828 106.669 55.0057 112.385 55.0057C114.546 55.0057 116.408 55.5779 117.426 56.3226V59.2241C115.964 58.3179 114.28 57.8322 112.559 57.8203C108.81 57.8203 107.221 60.3657 107.221 65.742C107.221 70.9566 108.537 73.6244 111.392 73.6244C114.121 73.638 114.991 71.5274 114.991 68.2005ZM134.037 68.5973C134.037 73.6638 131.306 76.4566 127.378 76.4566C123.451 76.4566 120.719 73.6638 120.719 68.6354C120.719 63.5689 123.449 60.7761 127.378 60.7761C131.307 60.7761 134.037 63.5567 134.037 68.5973ZM130.35 68.5973C130.35 65.1209 129.357 63.5948 127.384 63.5948C125.41 63.5948 124.415 65.1209 124.415 68.6354C124.415 72.1118 125.409 73.6393 127.384 73.6393C129.358 73.6393 130.35 72.0995 130.35 68.5973Z" fill="white"/>
<path d="M18.2307 58.1315H16.5999C13.6372 58.1315 12.0771 59.6332 12.0771 61.8566C12.0771 64.3762 13.1561 65.5436 15.3795 67.0453L17.2047 68.2753L11.9276 76.1576H8L12.7308 69.1056C9.99913 67.1581 8.47158 65.2705 8.47158 62.055C8.47158 58.0323 11.2617 55.3129 16.5619 55.3129H21.8376V76.159H18.2185V58.1315H18.2307ZM36.7556 61.0738V76.159H33.1922V69.864H28.4234V76.159H24.8601V61.0738H28.4234V67.0453H33.1922V61.0738H36.7556ZM52.8587 79.5987H49.5563V76.1467H41.5475V79.5987H38.2451V73.3349H39.3622C40.6166 70.8153 40.8653 66.0465 40.8653 62.3594V61.0683H51.2686V73.3349H52.8587V79.5987ZM47.7053 63.8924H43.9313V64.3395C43.9313 66.9461 43.6595 71.0558 42.6646 73.3403H47.7053V63.8924ZM60.8661 76.4444C56.3106 76.4444 53.7271 73.8989 53.7271 68.6476C53.7271 64.0908 55.801 60.7653 60.1471 60.7653C63.7105 60.7653 66.0195 62.7508 66.0195 67.9912V69.8775H57.4155C57.5636 72.3985 58.5571 73.6271 61.1651 73.6271C62.9033 73.6271 64.7651 72.9693 65.87 72.2124V75.1288C64.8276 75.8491 63.1506 76.4444 60.8661 76.4444ZM57.4155 67.2451H62.3936V66.9475C62.3936 65.0612 61.85 63.5961 60.0833 63.5961C58.3831 63.5825 57.5147 64.8478 57.4155 67.2451ZM71.991 68.7468V76.159H68.4155V61.0738H71.991V68.0266L77.0385 61.0738H80.6399L75.5993 68.0266L81.3221 76.1467H77.2681L71.991 68.7468ZM81.1169 68.6232C81.1169 64.0283 83.4884 60.7639 88.0479 60.7639C89.8147 60.7639 91.1397 61.0616 91.8845 61.4842V64.5135C91.1642 64.0664 89.8106 63.5825 88.4325 63.5825C86.0977 63.5825 84.8066 65.2582 84.8066 68.5362C84.8066 71.6524 85.8626 73.6393 88.4081 73.6393C89.9098 73.6393 90.9902 73.2534 91.8845 72.6201V75.5257C91.0147 76.159 89.8459 76.4566 88.1961 76.4566C83.4259 76.4444 81.1155 73.6638 81.1155 68.6232H81.1169Z" fill="#21212A"/>
<path d="M92.7892 51.6823C92.3372 51.6823 91.939 51.5746 91.5946 51.3594C91.2502 51.1441 90.9776 50.8643 90.7767 50.5199V53.867H89.5928V45.946H90.6368V46.9576C90.852 46.6204 91.1318 46.3513 91.4762 46.1504C91.8206 45.9495 92.2045 45.8491 92.6278 45.8491C93.0152 45.8491 93.3704 45.928 93.6933 46.0859C94.0161 46.2365 94.2959 46.4482 94.5327 46.7208C94.7695 46.9935 94.9524 47.3056 95.0816 47.6572C95.2179 48.0016 95.2861 48.3675 95.2861 48.7549C95.2861 49.293 95.1785 49.7845 94.9632 50.2293C94.7551 50.6742 94.461 51.0293 94.0807 51.2948C93.7076 51.5531 93.2771 51.6823 92.7892 51.6823ZM92.4018 50.6706C92.6529 50.6706 92.8789 50.6168 93.0798 50.5092C93.2879 50.4015 93.4637 50.258 93.6072 50.0787C93.7578 49.8993 93.8726 49.6948 93.9515 49.4652C94.0305 49.2356 94.0699 48.9989 94.0699 48.7549C94.0699 48.4966 94.0269 48.2527 93.9408 48.0231C93.8547 47.7935 93.7291 47.5926 93.5641 47.4204C93.4063 47.2482 93.2197 47.1119 93.0045 47.0114C92.7964 46.911 92.5668 46.8607 92.3157 46.8607C92.165 46.8607 92.0072 46.8894 91.8421 46.9468C91.6771 47.0042 91.5229 47.0832 91.3794 47.1836C91.2359 47.2841 91.1103 47.4024 91.0027 47.5388C90.8951 47.6751 90.8197 47.8186 90.7767 47.9693V49.4437C90.8771 49.6733 91.0099 49.8814 91.1749 50.0679C91.3399 50.2473 91.53 50.3944 91.7453 50.5092C91.9605 50.6168 92.1794 50.6706 92.4018 50.6706Z" fill="#21212A"/>
<path d="M85.7429 51.6823C85.3052 51.6823 84.907 51.6069 84.5483 51.4562C84.1967 51.2984 83.8918 51.0867 83.6335 50.8213C83.3752 50.5486 83.1743 50.2401 83.0308 49.8957C82.8945 49.5441 82.8263 49.1711 82.8263 48.7764C82.8263 48.2455 82.9483 47.7612 83.1922 47.3235C83.4362 46.8787 83.777 46.5235 84.2146 46.2581C84.6523 45.9854 85.1653 45.8491 85.7536 45.8491C86.342 45.8491 86.8478 45.9854 87.2711 46.2581C87.7016 46.5235 88.0352 46.8751 88.272 47.3128C88.5088 47.7504 88.6272 48.2204 88.6272 48.7226C88.6272 48.8087 88.6236 48.8912 88.6164 48.9702C88.6092 49.0419 88.6021 49.1029 88.5949 49.1531H84.0855C84.107 49.4832 84.1967 49.7737 84.3545 50.0249C84.5196 50.2688 84.7276 50.4625 84.9788 50.606C85.2299 50.7424 85.4989 50.8105 85.7859 50.8105C86.1016 50.8105 86.3994 50.7316 86.6792 50.5737C86.9662 50.4159 87.1599 50.2078 87.2604 49.9495L88.272 50.2401C88.15 50.5128 87.9635 50.7603 87.7124 50.9827C87.4684 51.198 87.1779 51.3702 86.8406 51.4993C86.5034 51.6213 86.1375 51.6823 85.7429 51.6823ZM84.0532 48.3675H87.4541C87.4326 48.0446 87.3393 47.7612 87.1743 47.5172C87.0164 47.2661 86.8119 47.0724 86.5608 46.9361C86.3169 46.7926 86.0442 46.7208 85.7429 46.7208C85.4487 46.7208 85.1761 46.7926 84.9249 46.9361C84.681 47.0724 84.4801 47.2661 84.3223 47.5172C84.1644 47.7612 84.0747 48.0446 84.0532 48.3675Z" fill="#21212A"/>
<path d="M76.7811 51.5746V45.946H77.9649V48.1845H80.5802V45.946H81.764V51.5746H80.5802V49.2069H77.9649V51.5746H76.7811Z" fill="#21212A"/>
<path d="M72.8395 51.5746V46.9899H70.9776V45.946H75.896V46.9899H74.0234V51.5746H72.8395Z" fill="#21212A"/>
<path d="M67.9434 51.6823C67.4914 51.6823 67.0932 51.5746 66.7488 51.3594C66.4044 51.1441 66.1318 50.8643 65.9309 50.5199V53.867H64.747V45.946H65.791V46.9576C66.0062 46.6204 66.286 46.3513 66.6304 46.1504C66.9748 45.9495 67.3587 45.8491 67.782 45.8491C68.1695 45.8491 68.5246 45.928 68.8475 46.0859C69.1703 46.2365 69.4502 46.4482 69.6869 46.7208C69.9237 46.9935 70.1067 47.3056 70.2358 47.6572C70.3721 48.0016 70.4403 48.3675 70.4403 48.7549C70.4403 49.293 70.3327 49.7845 70.1174 50.2293C69.9094 50.6742 69.6152 51.0293 69.2349 51.2948C68.8618 51.5531 68.4313 51.6823 67.9434 51.6823ZM67.556 50.6706C67.8071 50.6706 68.0331 50.6168 68.234 50.5092C68.4421 50.4015 68.6179 50.258 68.7614 50.0787C68.9121 49.8993 69.0268 49.6948 69.1058 49.4652C69.1847 49.2356 69.2242 48.9989 69.2242 48.7549C69.2242 48.4966 69.1811 48.2527 69.095 48.0231C69.0089 47.7935 68.8834 47.5926 68.7183 47.4204C68.5605 47.2482 68.3739 47.1119 68.1587 47.0114C67.9506 46.911 67.721 46.8607 67.4699 46.8607C67.3192 46.8607 67.1614 46.8894 66.9964 46.9468C66.8313 47.0042 66.6771 47.0832 66.5336 47.1836C66.3901 47.2841 66.2645 47.4024 66.1569 47.5388C66.0493 47.6751 65.9739 47.8186 65.9309 47.9693V49.4437C66.0313 49.6733 66.1641 49.8814 66.3291 50.0679C66.4941 50.2473 66.6843 50.3944 66.8995 50.5092C67.1147 50.6168 67.3336 50.6706 67.556 50.6706Z" fill="#21212A"/>
<path d="M58.2633 49.928C58.2633 49.5693 58.3637 49.2572 58.5646 48.9917C58.7727 48.719 59.0561 48.511 59.4148 48.3675C59.7736 48.2168 60.1897 48.1415 60.6633 48.1415C60.9144 48.1415 61.1691 48.1594 61.4274 48.1953C61.6928 48.2311 61.926 48.2885 62.1269 48.3675V48.0123C62.1269 47.6177 62.0085 47.3092 61.7718 47.0868C61.535 46.8643 61.1942 46.7531 60.7494 46.7531C60.4337 46.7531 60.1359 46.8105 59.8561 46.9253C59.5763 47.0329 59.2785 47.1872 58.9628 47.3881L58.5646 46.5917C58.9377 46.3406 59.3108 46.154 59.6839 46.032C60.0642 45.9101 60.4624 45.8491 60.8785 45.8491C61.6319 45.8491 62.2238 46.05 62.6543 46.4518C63.0919 46.8464 63.3108 47.4096 63.3108 48.1415V50.2401C63.3108 50.3764 63.3323 50.4733 63.3754 50.5307C63.4256 50.5881 63.5081 50.6204 63.6229 50.6276V51.5746C63.5153 51.5962 63.4184 51.6105 63.3323 51.6177C63.2462 51.6249 63.1745 51.6284 63.1171 51.6284C62.8659 51.6284 62.6758 51.5675 62.5467 51.4455C62.4175 51.3235 62.3422 51.18 62.3206 51.015L62.2884 50.6921C62.0444 51.0078 61.7323 51.2518 61.352 51.424C60.9718 51.5962 60.5879 51.6823 60.2005 51.6823C59.8274 51.6823 59.4937 51.6069 59.1996 51.4562C58.9054 51.2984 58.6758 51.0867 58.5108 50.8213C58.3458 50.5558 58.2633 50.258 58.2633 49.928ZM61.8471 50.2724C61.9332 50.1791 62.0014 50.0859 62.0516 49.9926C62.1018 49.8993 62.1269 49.8168 62.1269 49.745V49.0993C61.926 49.0204 61.7144 48.963 61.492 48.9271C61.2695 48.8841 61.0507 48.8625 60.8355 48.8625C60.405 48.8625 60.0534 48.9486 59.7807 49.1208C59.5153 49.293 59.3825 49.5298 59.3825 49.8311C59.3825 49.9962 59.4256 50.154 59.5117 50.3047C59.605 50.4554 59.7341 50.5773 59.8991 50.6706C60.0713 50.7639 60.283 50.8105 60.5341 50.8105C60.7924 50.8105 61.0399 50.7603 61.2767 50.6598C61.5135 50.5594 61.7036 50.4302 61.8471 50.2724Z" fill="#21212A"/>
<path d="M52.3977 51.5746V45.946H57.2408V51.5746H56.0569V46.9899H53.5816V51.5746H52.3977Z" fill="#21212A"/>
<defs>
<filter id="filter0_d_253_2" x="0.548599" y="-3.05176e-05" width="45.0838" height="45.0838" filterUnits="userSpaceOnUse" color-interpolation-filters="sRGB">
<feFlood flood-opacity="0" result="BackgroundImageFix"/>
<feColorMatrix in="SourceAlpha" type="matrix" values="0 0 0 0 0 0 0 0 0 0 0 0 0 0 0 0 0 0 127 0" result="hardAlpha"/>
<feOffset dx="-3" dy="3"/>
<feGaussianBlur stdDeviation="2.5"/>
<feComposite in2="hardAlpha" operator="out"/>
<feColorMatrix type="matrix" values="0 0 0 0 0 0 0 0 0 0 0 0 0 0 0 0 0 0 0.11 0"/>
<feBlend mode="normal" in2="BackgroundImageFix" result="effect1_dropShadow_253_2"/>
<feBlend mode="normal" in="SourceGraphic" in2="effect1_dropShadow_253_2" result="shape"/>
</filter>
<linearGradient id="paint0_linear_253_2" x1="8.5486" y1="1.99997" x2="40.5115" y2="44.079" gradientUnits="userSpaceOnUse">
<stop stop-color="#FEDE0D"/>
<stop offset="1" stop-color="#F6B801"/>
</linearGradient>
<linearGradient id="paint1_linear_253_2" x1="8.5486" y1="1.99997" x2="40.5115" y2="44.079" gradientUnits="userSpaceOnUse">
<stop stop-color="#FEDE0D"/>
<stop offset="1" stop-color="#F6B801"/>
</linearGradient>
</defs>
</svg>
