<svg width="1920" height="1240" viewBox="0 0 1920 1240" fill="none" xmlns="http://www.w3.org/2000/svg">
<path d="M546.042 1010.09C471.614 1010.09 400.961 994.989 334.084 964.786C268.285 934.583 210.037 893.055 159.34 840.2C109.721 786.267 70.8893 723.704 42.844 652.512C14.7987 581.32 0.776002 504.195 0.776002 421.138C0.776002 342.395 14.7987 268.507 42.844 199.472C70.8893 129.359 110.261 67.8746 160.958 15.02C211.655 -37.8347 270.982 -79.3634 338.938 -109.566C406.894 -139.769 480.783 -154.87 560.604 -154.87C668.471 -154.87 760.697 -131.679 837.282 -85.2961C914.946 -39.9921 973.194 20.4133 1012.03 95.92L845.372 218.888C816.248 161.719 775.259 118.033 722.404 87.83C670.628 57.6273 613.998 42.5259 552.514 42.5259C503.974 42.5259 459.749 52.7733 419.838 73.268C379.927 93.7627 345.41 121.808 316.286 157.404C287.162 193 264.51 233.989 248.33 280.372C233.229 326.755 225.678 375.834 225.678 427.61C225.678 482.622 233.768 533.319 249.948 579.702C267.207 626.085 290.937 666.535 321.14 701.052C352.421 735.569 388.557 763.075 429.546 783.57C470.535 802.986 515.839 812.694 565.458 812.694C623.706 812.694 679.257 797.593 732.112 767.39C786.045 737.187 836.203 692.962 882.586 634.714V854.762C786.585 958.314 674.403 1010.09 546.042 1010.09ZM866.406 574.848H635.032V411.43H1050.86V1002H866.406V574.848Z" fill="#F5F5F5"/>
<rect x="960" width="960" height="930" fill="#FFDE40"/>
<mask id="mask0_313_2" style="mask-type:alpha" maskUnits="userSpaceOnUse" x="945" y="0" width="975" height="930">
<rect x="945" width="975" height="930" fill="#FFDE40"/>
</mask>
<g mask="url(#mask0_313_2)">
<path opacity="0.25" d="M1926 164H1472V1342H1198V164H744V-78.0001H1926V164ZM2055.47 -78.0001H2335.47L2857.47 1342H2573.47L2441.47 988H1945.47L1815.47 1342H1531.47L2055.47 -78.0001ZM2391.47 794L2195.47 208L1991.47 794H2391.47Z" fill="white"/>
</g>
</svg>
